<svg xmlns="http://www.w3.org/2000/svg" viewBox="0 0 240 400"><path id="region-front-face" data-region-code="1" d="M117 83h6v1H117zM116 84h7v1H116zM116 85h7v1H116zM116 86h7v1H116zM116 87h7v1H116zM116 88h7v1H116zM116 89h7v1H116zM116 90h7v1H116zM116 91h7v1H116zM116 92h7v1H116zM116 93h7v1H116zM116 94h7v1H116zM116 95h7v1H116zM116 96h7v1H116zM116 97h7v1H116zM116 98h7v1H116zM116 99h7v1H116zM116 100h7v1H116zM116 101h7v1H116zM116 102h7v1H116zM116 103h7v1H116zM116 104h7v1H116zM116 105h7v1H116zM116 106h7v1H116zM116 107h7v1H116zM116 108h7v1H116zM116 109h7v1H116zM116 110h7v1H116zM116 111h7v1H116zM116 112h7v1H116zM116 113h7v1H116zM116 114h7v1H116zM116 115h7v1H116zM116 116h7v1H116zM116 117h7v1H116zM116 118h7v1H116zM116 119h7v1H116z"/><path id="region-front-neck" data-region-code="2" d="M112 120h16v1H112zM111 121h18v1H111zM109 122h21v1H109zM106 123h28v1H106zM105 124h29v1H105zM105 125h29v1H105zM105 126h29v1H105zM105 127h29v1H105zM105 128h29v1H105zM105 129h29v1H105zM105 130h29v1H105zM105 131h29v1H105z"/><path id="region-front-chest-center" data-region-code="3" d="M116 132h7v1H116zM116 133h7v1H116zM116 134h7v1H116zM116 135h7v1H116zM116 136h7v1H116zM116 137h7v1H116zM116 138h7v1H116zM116 139h7v1H116zM116 140h7v1H116zM116 141h7v1H116zM116 142h7v1H116zM116 143h7v1H116zM116 144h7v1H116zM116 145h7v1H116zM116 146h7v1H116zM116 147h7v1H116zM116 148h7v1H116zM116 149h7v1H116zM116 150h7v1H116zM116 151h7v1H116zM116 152h7v1H116zM116 153h7v1H116zM116 154h7v1H116zM116 155h7v1H116zM116 156h7v1H116zM116 157h7v1H116zM116 158h7v1H116zM116 159h7v1H116zM116 160h7v1H116zM116 161h7v1H116zM116 162h7v1H116z"/><path id="region-front-upper-abdomen" data-region-code="4" d="M104 163h31v1H104zM104 164h31v1H104zM104 165h31v1H104zM104 166h31v1H104zM104 167h31v1H104zM104 168h31v1H104zM104 169h31v1H104zM104 170h31v1H104zM104 171h31v1H104zM104 172h31v1H104zM104 173h31v1H104zM104 174h31v1H104zM104 175h31v1H104zM104 176h31v1H104zM104 177h31v1H104zM104 178h31v1H104zM104 179h31v1H104zM104 180h31v1H104z"/><path id="region-front-umbilical" data-region-code="5" d="M104 181h31v1H104zM104 182h31v1H104zM104 183h31v1H104zM104 184h31v1H104zM104 185h31v1H104zM104 186h31v1H104zM104 187h31v1H104zM104 188h31v1H104zM104 189h31v1H104zM104 190h31v1H104zM104 191h31v1H104zM104 192h31v1H104zM104 193h31v1H104zM104 194h31v1H104zM104 195h31v1H104zM104 196h31v1H104zM104 197h31v1H104z"/><path id="region-front-lower-abdomen" data-region-code="6" d="M115 198h9v1H115zM115 199h9v1H115zM115 200h9v1H115zM115 201h9v1H115zM115 202h9v1H115zM115 203h9v1H115zM115 204h9v1H115zM115 205h9v1H115zM115 206h9v1H115zM115 207h9v1H115zM115 208h9v1H115zM115 209h9v1H115zM115 210h9v1H115zM115 211h9v1H115zM115 212h9v1H115zM115 213h9v1H115zM115 214h9v1H115zM115 215h4v1H115zM121 215h3v1H121z"/><path id="region-front-left-cheek" data-region-code="7" d="M123 84h3v1H123zM123 85h4v1H123zM123 86h6v1H123zM123 87h7v1H123zM123 88h8v1H123zM123 89h8v1H123zM123 90h9v1H123zM123 91h9v1H123zM123 92h10v1H123zM123 93h10v1H123zM123 94h10v1H123zM123 95h10v1H123zM123 96h10v1H123zM123 97h10v1H123zM123 98h10v1H123zM123 99h10v1H123zM123 100h10v1H123zM123 101h10v1H123zM123 102h12v1H123zM123 103h12v1H123zM123 104h13v1H123zM123 105h13v1H123zM123 106h13v1H123zM123 107h12v1H123zM123 108h12v1H123zM123 109h12v1H123zM123 110h11v1H123zM123 111h10v1H123zM123 112h8v1H123zM123 113h8v1H123zM123 114h8v1H123zM123 115h7v1H123zM123 116h6v1H123zM123 117h5v1H123zM123 118h5v1H123zM123 119h5v1H123z"/><path id="region-front-right-cheek" data-region-code="8" d="M114 84h2v1H114zM112 85h4v1H112zM111 86h5v1H111zM110 87h6v1H110zM109 88h7v1H109zM108 89h8v1H108zM108 90h8v1H108zM107 91h9v1H107zM107 92h9v1H107zM107 93h9v1H107zM107 94h9v1H107zM107 95h9v1H107zM106 96h10v1H106zM106 97h10v1H106zM106 98h10v1H106zM106 99h10v1H106zM106 100h10v1H106zM107 101h9v1H107zM105 102h11v1H105zM104 103h12v1H104zM104 104h12v1H104zM104 105h12v1H104zM104 106h12v1H104zM104 107h12v1H104zM105 108h11v1H105zM105 109h11v1H105zM106 110h10v1H106zM107 111h9v1H107zM108 112h8v1H108zM109 113h7v1H109zM109 114h7v1H109zM110 115h6v1H110zM110 116h6v1H110zM111 117h5v1H111zM112 118h4v1H112zM112 119h4v1H112z"/><path id="region-front-left-chest" data-region-code="9" d="M134 124h1v1H134zM134 125h1v1H134zM134 126h1v1H134zM134 127h1v1H134zM134 128h1v1H134zM134 129h1v1H134zM134 130h1v1H134zM134 131h1v1H134zM123 132h12v1H123zM123 133h12v1H123zM123 134h12v1H123zM123 135h12v1H123zM123 136h12v1H123zM123 137h12v1H123zM123 138h12v1H123zM123 139h12v1H123zM123 140h12v1H123zM123 141h12v1H123zM123 142h12v1H123zM123 143h12v1H123zM123 144h12v1H123zM123 145h12v1H123zM123 146h12v1H123zM123 147h12v1H123zM123 148h12v1H123zM123 149h12v1H123zM123 150h12v1H123zM123 151h12v1H123zM123 152h12v1H123zM123 153h12v1H123zM123 154h12v1H123zM123 155h12v1H123zM123 156h12v1H123zM123 157h12v1H123zM123 158h12v1H123zM123 159h12v1H123zM123 160h12v1H123zM123 161h12v1H123zM123 162h12v1H123z"/><path id="region-front-right-chest" data-region-code="10" d="M104 124h1v1H104zM104 125h1v1H104zM104 126h1v1H104zM104 127h1v1H104zM104 128h1v1H104zM104 129h1v1H104zM104 130h1v1H104zM104 131h1v1H104zM104 132h12v1H104zM104 133h12v1H104zM104 134h12v1H104zM104 135h12v1H104zM104 136h12v1H104zM104 137h12v1H104zM104 138h12v1H104zM104 139h12v1H104zM104 140h12v1H104zM104 141h12v1H104zM104 142h12v1H104zM104 143h12v1H104zM104 144h12v1H104zM104 145h12v1H104zM104 146h12v1H104zM104 147h12v1H104zM104 148h12v1H104zM104 149h12v1H104zM104 150h12v1H104zM104 151h12v1H104zM104 152h12v1H104zM104 153h12v1H104zM104 154h12v1H104zM104 155h12v1H104zM104 156h12v1H104zM104 157h12v1H104zM104 158h12v1H104zM104 159h12v1H104zM104 160h12v1H104zM104 161h12v1H104zM104 162h12v1H104z"/><path id="region-front-left-shoulder" data-region-code="11" d="M139 123h7v1H139zM135 124h11v1H135zM135 125h11v1H135zM135 126h11v1H135zM135 127h11v1H135zM135 128h11v1H135zM135 129h11v1H135zM135 130h11v1H135zM135 131h11v1H135zM135 132h11v1H135zM135 133h11v1H135zM135 134h11v1H135zM135 135h11v1H135zM135 136h11v1H135zM135 137h11v1H135zM135 138h11v1H135zM135 139h11v1H135zM135 140h11v1H135zM135 141h11v1H135zM135 142h11v1H135zM135 143h11v1H135zM135 144h10v1H135zM135 145h10v1H135zM135 146h10v1H135zM135 147h10v1H135zM135 148h10v1H135zM135 149h9v1H135zM135 150h9v1H135zM135 151h9v1H135zM135 152h9v1H135zM135 153h8v1H135zM135 154h8v1H135zM135 155h8v1H135zM135 156h8v1H135zM135 157h7v1H135zM135 158h7v1H135zM135 159h7v1H135zM135 160h7v1H135zM135 161h6v1H135zM135 162h6v1H135zM135 163h6v1H135zM135 164h5v1H135zM135 165h5v1H135zM135 166h5v1H135zM135 167h5v1H135zM135 168h4v1H135zM135 169h4v1H135zM135 170h4v1H135zM135 171h3v1H135zM135 172h3v1H135zM135 173h3v1H135zM135 174h3v1H135zM135 175h3v1H135zM135 176h3v1H135zM135 177h3v1H135zM135 178h3v1H135zM135 179h3v1H135zM135 180h3v1H135zM135 181h3v1H135zM135 182h3v1H135zM135 183h3v1H135zM135 184h3v1H135zM135 185h3v1H135zM135 186h4v1H135zM135 187h4v1H135zM135 188h4v1H135zM135 189h4v1H135zM135 190h4v1H135zM135 191h5v1H135zM135 192h5v1H135zM135 193h5v1H135zM135 194h5v1H135zM135 195h5v1H135zM135 196h6v1H135zM135 197h6v1H135zM135 198h6v1H135zM135 199h6v1H135zM135 200h7v1H135zM135 201h7v1H135zM135 202h7v1H135zM135 203h7v1H135zM135 204h8v1H135zM135 205h8v1H135zM135 206h8v1H135zM135 207h8v1H135zM135 208h8v1H135z"/><path id="region-front-right-shoulder" data-region-code="12" d="M93 123h7v1H93zM93 124h11v1H93zM93 125h11v1H93zM93 126h11v1H93zM93 127h11v1H93zM93 128h11v1H93zM93 129h11v1H93zM93 130h11v1H93zM93 131h11v1H93zM93 132h11v1H93zM93 133h11v1H93zM93 134h11v1H93zM93 135h11v1H93zM93 136h11v1H93zM93 137h11v1H93zM93 138h11v1H93zM93 139h11v1H93zM93 140h11v1H93zM94 141h10v1H94zM94 142h10v1H94zM94 143h10v1H94zM94 144h10v1H94zM94 145h10v1H94zM95 146h9v1H95zM95 147h9v1H95zM95 148h9v1H95zM95 149h9v1H95zM96 150h8v1H96zM96 151h8v1H96zM96 152h8v1H96zM96 153h8v1H96zM97 154h7v1H97zM97 155h7v1H97zM97 156h7v1H97zM97 157h7v1H97zM98 158h6v1H98zM98 159h6v1H98zM98 160h6v1H98zM98 161h6v1H98zM99 162h5v1H99zM99 163h5v1H99zM99 164h5v1H99zM100 165h4v1H100zM100 166h4v1H100zM100 167h4v1H100zM100 168h4v1H100zM101 169h3v1H101zM101 170h3v1H101zM101 171h3v1H101zM101 172h3v1H101zM102 173h2v1H102zM102 174h2v1H102zM102 175h2v1H102zM102 176h2v1H102zM102 177h2v1H102zM102 178h2v1H102zM102 179h2v1H102zM102 180h2v1H102zM102 181h2v1H102zM102 182h2v1H102zM102 183h2v1H102zM101 184h3v1H101zM101 185h3v1H101zM101 186h3v1H101zM101 187h3v1H101zM101 188h3v1H101zM100 189h4v1H100zM100 190h4v1H100zM100 191h4v1H100zM100 192h4v1H100zM100 193h4v1H100zM99 194h5v1H99zM99 195h5v1H99zM99 196h5v1H99zM99 197h5v1H99zM98 198h6v1H98zM98 199h6v1H98zM98 200h6v1H98zM98 201h6v1H98zM97 202h7v1H97zM97 203h7v1H97zM97 204h7v1H97zM97 205h7v1H97zM97 206h7v1H97zM96 207h8v1H96zM96 208h8v1H96z"/><path id="region-front-left-upper-arm" data-region-code="13" d="M146 123h2v1H146zM146 124h3v1H146zM146 125h4v1H146zM146 126h6v1H146zM146 127h7v1H146zM146 128h8v1H146zM146 129h9v1H146zM146 130h10v1H146zM146 131h11v1H146zM146 132h12v1H146zM146 133h13v1H146zM146 134h15v1H146zM146 135h17v1H146zM146 136h18v1H146zM146 137h19v1H146zM146 138h19v1H146zM146 139h19v1H146zM149 140h16v1H149zM150 141h15v1H150zM152 142h13v1H152zM153 143h12v1H153zM155 144h10v1H155zM157 145h8v1H157zM159 146h6v1H159zM161 147h4v1H161zM164 148h1v1H164z"/><path id="region-front-right-upper-arm" data-region-code="14" d="M92 123h1v1H92zM90 124h3v1H90zM89 125h4v1H89zM88 126h5v1H88zM87 127h6v1H87zM86 128h7v1H86zM85 129h8v1H85zM84 130h9v1H84zM83 131h10v1H83zM82 132h11v1H82zM80 133h13v1H80zM78 134h15v1H78zM77 135h16v1H77zM76 136h17v1H76zM74 137h19v1H74zM74 138h19v1H74zM74 139h18v1H74zM74 140h17v1H74zM74 141h15v1H74zM74 142h14v1H74zM74 143h12v1H74zM74 144h11v1H74zM74 145h9v1H74zM74 146h7v1H74zM74 147h4v1H74zM74 148h2v1H74z"/><path id="region-front-left-elbow" data-region-code="15" d="M165 138h2v1H165zM165 139h3v1H165zM165 140h5v1H165zM165 141h8v1H165zM165 142h8v1H165zM165 143h8v1H165zM165 144h8v1H165zM165 145h8v1H165zM165 146h8v1H165zM165 147h8v1H165zM165 148h8v1H165zM166 149h7v1H166zM167 150h6v1H167zM169 151h4v1H169zM170 152h3v1H170zM172 153h1v1H172z"/><path id="region-front-right-elbow" data-region-code="16" d="M73 138h1v1H73zM71 139h3v1H71zM70 140h4v1H70zM67 141h7v1H67zM66 142h8v1H66zM66 143h8v1H66zM66 144h8v1H66zM66 145h8v1H66zM66 146h8v1H66zM66 147h8v1H66zM66 148h8v1H66zM66 149h8v1H66zM66 150h6v1H66zM66 151h5v1H66zM66 152h4v1H66zM66 153h2v1H66z"/><path id="region-front-left-forearm" data-region-code="17" d="M173 142h3v1H173zM173 143h6v1H173zM173 144h7v1H173zM173 145h10v1H173zM173 146h12v1H173zM173 147h14v1H173zM173 148h17v1H173zM173 149h19v1H173zM173 150h20v1H173zM173 151h22v1H173zM173 152h23v1H173zM173 153h23v1H173zM175 154h21v1H175zM179 155h17v1H179zM183 156h13v1H183zM189 157h7v1H189zM193 158h3v1H193zM195 159h1v1H195z"/><path id="region-front-right-forearm" data-region-code="18" d="M63 142h3v1H63zM61 143h5v1H61zM59 144h7v1H59zM57 145h9v1H57zM55 146h11v1H55zM52 147h14v1H52zM50 148h16v1H50zM48 149h18v1H48zM46 150h20v1H46zM44 151h22v1H44zM43 152h23v1H43zM43 153h23v1H43zM43 154h22v1H43zM43 155h18v1H43zM43 156h13v1H43zM43 157h8v1H43zM43 158h3v1H43zM43 159h2v1H43z"/><path id="region-front-left-wrist" data-region-code="19" d="M196 152h1v1H196zM196 153h3v1H196zM196 154h6v1H196zM196 155h7v1H196zM196 156h7v1H196zM196 157h7v1H196zM196 158h7v1H196zM196 159h7v1H196zM197 160h6v1H197zM198 161h5v1H198zM199 162h4v1H199zM199 163h4v1H199zM200 164h3v1H200zM200 165h3v1H200zM201 166h2v1H201zM202 167h1v1H202zM202 168h1v1H202z"/><path id="region-front-right-wrist" data-region-code="20" d="M40 153h3v1H40zM38 154h5v1H38zM37 155h6v1H37zM36 156h7v1H36zM36 157h7v1H36zM36 158h7v1H36zM36 159h7v1H36zM36 160h7v1H36zM36 161h6v1H36zM36 162h5v1H36zM36 163h4v1H36zM36 164h4v1H36zM36 165h3v1H36zM36 166h3v1H36zM36 167h2v1H36zM36 168h1v1H36z"/><path id="region-front-left-palm" data-region-code="21" d="M203 156h3v1H203zM203 157h7v1H203zM203 158h11v1H203zM203 159h12v1H203zM203 160h12v1H203zM203 161h12v1H203zM203 162h12v1H203zM203 163h12v1H203zM203 164h12v1H203zM203 165h12v1H203zM203 166h12v1H203zM203 167h12v1H203zM203 168h4v1H203zM210 168h5v1H210zM203 169h5v1H203zM214 169h1v1H214zM204 170h5v1H204zM205 171h4v1H205zM206 172h4v1H206zM207 173h2v1H207z"/><path id="region-front-right-palm" data-region-code="22" d="M34 156h2v1H34zM30 157h6v1H30zM26 158h10v1H26zM24 159h12v1H24zM24 160h12v1H24zM24 161h12v1H24zM24 162h12v1H24zM24 163h12v1H24zM24 164h12v1H24zM24 165h12v1H24zM24 166h12v1H24zM24 167h12v1H24zM24 168h5v1H24zM33 168h3v1H33zM24 169h2v1H24zM32 169h4v1H32zM31 170h4v1H31zM30 171h4v1H30zM30 172h3v1H30zM31 173h1v1H31z"/><path id="region-front-left-fingers" data-region-code="23" d="M215 159h4v1H215zM215 160h5v1H215zM215 161h4v1H215zM215 162h6v1H215zM215 163h7v1H215zM215 164h7v1H215zM215 165h6v1H215zM215 166h8v1H215zM215 167h1v1H215zM218 167h5v1H218zM215 168h4v1H215zM215 169h5v1H215zM217 170h3v1H217z"/><path id="region-front-right-fingers" data-region-code="24" d="M21 159h3v1H21zM20 160h4v1H20zM21 161h3v1H21zM19 162h5v1H19zM18 163h6v1H18zM18 164h6v1H18zM19 165h5v1H19zM17 166h7v1H17zM17 167h4v1H17zM23 167h1v1H23zM21 168h3v1H21zM20 169h4v1H20zM21 170h2v1H21z"/><path id="region-front-left-groin" data-region-code="25" d="M124 198h11v1H124zM124 199h11v1H124zM124 200h11v1H124zM124 201h11v1H124zM124 202h11v1H124zM124 203h11v1H124zM124 204h11v1H124zM124 205h11v1H124zM124 206h11v1H124zM124 207h11v1H124zM124 208h11v1H124zM124 209h19v1H124zM124 210h20v1H124zM124 211h20v1H124zM124 212h20v1H124zM124 213h20v1H124zM124 214h20v1H124zM124 215h20v1H124z"/><path id="region-front-right-groin" data-region-code="26" d="M104 198h11v1H104zM104 199h11v1H104zM104 200h11v1H104zM104 201h11v1H104zM104 202h11v1H104zM104 203h11v1H104zM104 204h11v1H104zM104 205h11v1H104zM104 206h11v1H104zM104 207h11v1H104zM104 208h11v1H104zM96 209h19v1H96zM96 210h19v1H96zM96 211h19v1H96zM96 212h19v1H96zM96 213h19v1H96zM96 214h19v1H96zM96 215h19v1H96z"/><path id="region-front-left-thigh" data-region-code="27" d="M121 216h23v1H121zM122 217h22v1H122zM122 218h22v1H122zM122 219h22v1H122zM122 220h22v1H122zM122 221h22v1H122zM122 222h23v1H122zM122 223h23v1H122zM123 224h22v1H123zM123 225h22v1H123zM123 226h22v1H123zM124 227h21v1H124zM124 228h21v1H124zM124 229h20v1H124zM125 230h19v1H125zM125 231h19v1H125zM125 232h19v1H125zM126 233h18v1H126zM126 234h18v1H126zM126 235h18v1H126zM127 236h17v1H127zM127 237h17v1H127zM127 238h17v1H127zM127 239h16v1H127zM127 240h16v1H127zM127 241h16v1H127zM128 242h15v1H128zM128 243h15v1H128zM128 244h15v1H128zM128 245h15v1H128zM128 246h15v1H128zM128 247h15v1H128zM128 248h15v1H128zM128 249h15v1H128zM128 250h15v1H128z"/><path id="region-front-right-thigh" data-region-code="28" d="M96 216h22v1H96zM95 217h23v1H95zM95 218h23v1H95zM95 219h23v1H95zM95 220h23v1H95zM95 221h23v1H95zM95 222h22v1H95zM95 223h22v1H95zM95 224h22v1H95zM95 225h22v1H95zM95 226h21v1H95zM95 227h21v1H95zM95 228h21v1H95zM95 229h20v1H95zM95 230h20v1H95zM95 231h20v1H95zM95 232h19v1H95zM95 233h19v1H95zM96 234h18v1H96zM96 235h17v1H96zM96 236h17v1H96zM96 237h17v1H96zM96 238h17v1H96zM96 239h16v1H96zM96 240h16v1H96zM97 241h15v1H97zM97 242h15v1H97zM97 243h15v1H97zM97 244h15v1H97zM97 245h15v1H97zM97 246h15v1H97zM97 247h15v1H97zM97 248h15v1H97zM97 249h15v1H97zM97 250h15v1H97z"/><path id="region-front-left-knee" data-region-code="29" d="M128 251h15v1H128zM128 252h15v1H128zM129 253h14v1H129zM129 254h14v1H129zM129 255h14v1H129zM130 256h13v1H130zM130 257h14v1H130zM131 258h13v1H131zM131 259h13v1H131zM131 260h14v1H131zM131 261h14v1H131zM131 262h14v1H131zM131 263h15v1H131zM131 264h15v1H131zM131 265h15v1H131zM131 266h15v1H131zM131 267h15v1H131z"/><path id="region-front-right-knee" data-region-code="30" d="M96 251h16v1H96zM96 252h15v1H96zM96 253h15v1H96zM96 254h15v1H96zM96 255h14v1H96zM96 256h14v1H96zM96 257h13v1H96zM96 258h13v1H96zM95 259h14v1H95zM95 260h13v1H95zM95 261h13v1H95zM94 262h14v1H94zM94 263h14v1H94zM94 264h14v1H94zM93 265h16v1H93zM93 266h16v1H93zM93 267h16v1H93z"/><path id="region-front-left-leg" data-region-code="31" d="M131 268h16v1H131zM131 269h16v1H131zM131 270h16v1H131zM131 271h16v1H131zM131 272h16v1H131zM131 273h16v1H131zM131 274h16v1H131zM132 275h15v1H132zM132 276h14v1H132zM132 277h14v1H132zM133 278h13v1H133zM133 279h13v1H133zM133 280h14v1H133zM134 281h12v1H134zM134 282h12v1H134zM134 283h12v1H134zM135 284h11v1H135zM135 285h11v1H135zM135 286h11v1H135zM135 287h11v1H135zM136 288h10v1H136zM136 289h10v1H136zM136 290h10v1H136zM136 291h10v1H136zM136 292h10v1H136zM137 293h9v1H137zM137 294h8v1H137zM137 295h8v1H137z"/><path id="region-front-right-leg" data-region-code="32" d="M93 268h16v1H93zM93 269h16v1H93zM93 270h16v1H93zM93 271h16v1H93zM93 272h15v1H93zM93 273h15v1H93zM93 274h15v1H93zM93 275h15v1H93zM93 276h15v1H93zM93 277h14v1H93zM93 278h14v1H93zM93 279h14v1H93zM93 280h13v1H93zM93 281h13v1H93zM93 282h13v1H93zM93 283h12v1H93zM93 284h12v1H93zM93 285h12v1H93zM94 286h10v1H94zM94 287h10v1H94zM94 288h10v1H94zM94 289h10v1H94zM94 290h10v1H94zM94 291h9v1H94zM94 292h9v1H94zM94 293h9v1H94zM94 294h9v1H94zM94 295h9v1H94z"/><path id="region-front-left-ankle" data-region-code="33" d="M137 296h8v1H137zM137 297h8v1H137zM138 298h7v1H138zM138 299h7v1H138zM138 300h7v1H138zM138 301h7v1H138zM138 302h8v1H138zM138 303h8v1H138zM137 304h9v1H137z"/><path id="region-front-right-ankle" data-region-code="34" d="M94 296h8v1H94zM94 297h8v1H94zM94 298h8v1H94zM94 299h8v1H94zM94 300h8v1H94zM94 301h8v1H94zM94 302h8v1H94zM94 303h8v1H94zM93 304h9v1H93z"/><path id="region-front-left-foot" data-region-code="35" d="M137 305h9v1H137zM138 306h9v1H138zM138 307h9v1H138zM138 308h10v1H138zM139 309h9v1H139zM139 310h10v1H139zM139 311h12v1H139zM138 312h15v1H138z"/><path id="region-front-right-foot" data-region-code="36" d="M93 305h9v1H93zM93 306h9v1H93zM92 307h10v1H92zM92 308h9v1H92zM91 309h10v1H91zM90 310h11v1H90zM89 311h12v1H89zM87 312h14v1H87z"/><path id="region-front-left-toes" data-region-code="37" d="M138 313h15v1H138zM138 314h15v1H138zM139 315h13v1H139zM140 316h7v1H140z"/><path id="region-front-right-toes" data-region-code="38" d="M87 313h14v1H87zM87 314h14v1H87zM88 315h13v1H88zM93 316h7v1H93z"/></svg>
