<svg xmlns="http://www.w3.org/2000/svg" viewBox="0 0 240 400"><path id="region-left-head" data-region-code="74" d="M117 83h8v1H117zM113 84h15v1H113zM111 85h19v1H111zM110 86h22v1H110zM108 87h25v1H108zM107 88h27v1H107zM106 89h28v1H106zM106 90h29v1H106zM105 91h31v1H105zM104 92h32v1H104zM104 93h33v1H104zM104 94h33v1H104zM103 95h34v1H103zM122 96h3v1H122zM122 97h3v1H122zM122 98h3v1H122zM122 99h3v1H122zM122 100h3v1H122zM122 101h3v1H122zM122 102h3v1H122zM122 103h3v1H122zM122 104h3v1H122zM122 105h3v1H122zM122 106h3v1H122zM122 107h3v1H122zM122 108h3v1H122zM122 109h3v1H122zM122 110h3v1H122zM122 111h3v1H122zM122 112h3v1H122zM122 113h3v1H122zM122 114h3v1H122zM122 115h3v1H122zM122 116h3v1H122zM122 117h3v1H122zM122 118h3v1H122zM122 119h3v1H122z"/><path id="region-left-face" data-region-code="75" d="M103 96h19v1H103zM125 96h13v1H125zM103 97h19v1H103zM125 97h13v1H125zM103 98h19v1H103zM125 98h13v1H125zM103 99h19v1H103zM125 99h13v1H125zM103 100h19v1H103zM125 100h13v1H125zM103 101h19v1H103zM125 101h13v1H125zM103 102h19v1H103zM125 102h13v1H125zM104 103h18v1H104zM125 103h13v1H125zM104 104h18v1H104zM125 104h12v1H125zM103 105h19v1H103zM125 105h12v1H125zM103 106h19v1H103zM125 106h12v1H125zM102 107h20v1H102zM125 107h11v1H125zM101 108h21v1H101zM125 108h10v1H125zM101 109h21v1H101zM125 109h10v1H125zM101 110h21v1H101zM125 110h9v1H125zM103 111h19v1H103zM125 111h8v1H125zM103 112h19v1H103zM125 112h8v1H125zM103 113h19v1H103zM125 113h7v1H125zM103 114h19v1H103zM125 114h7v1H125zM103 115h19v1H103zM125 115h6v1H125zM104 116h18v1H104zM125 116h6v1H125zM105 117h17v1H105zM125 117h6v1H125zM105 118h17v1H105zM125 118h6v1H125zM105 119h17v1H105zM125 119h5v1H125z"/><path id="region-left-neck" data-region-code="76" d="M106 120h25v1H106zM116 121h15v1H116zM116 122h15v1H116zM117 123h14v1H117zM117 124h15v1H117zM117 125h15v1H117zM117 126h16v1H117zM117 127h17v1H117zM118 128h16v1H118zM118 129h17v1H118zM118 130h18v1H118zM117 131h19v1H117z"/><path id="region-left-shoulder" data-region-code="77" d="M117 132h20v1H117zM116 133h21v1H116zM116 134h22v1H116zM115 135h23v1H115zM115 136h23v1H115zM115 137h23v1H115zM114 138h25v1H114zM113 139h26v1H113zM113 140h26v1H113zM112 141h9v1H112zM126 141h13v1H126zM112 142h9v1H112zM126 142h13v1H126zM111 143h10v1H111zM126 143h13v1H126zM111 144h10v1H111zM126 144h13v1H126z"/><path id="region-left-thorax" data-region-code="78" d="M121 141h5v1H121zM121 142h5v1H121zM121 143h5v1H121zM121 144h5v1H121zM121 145h5v1H121zM121 146h5v1H121zM121 147h5v1H121zM121 148h5v1H121zM121 149h5v1H121zM121 150h5v1H121zM121 151h5v1H121zM121 152h5v1H121zM121 153h5v1H121zM121 154h5v1H121zM121 155h5v1H121zM121 156h5v1H121zM121 157h5v1H121zM121 158h5v1H121zM121 159h5v1H121zM121 160h5v1H121zM121 161h5v1H121zM121 162h5v1H121zM121 163h5v1H121zM121 164h5v1H121zM121 165h5v1H121zM121 166h5v1H121z"/><path id="region-left-abdomen" data-region-code="79" d="M121 167h5v1H121zM121 168h5v1H121zM121 169h5v1H121zM121 170h5v1H121zM121 171h5v1H121zM121 172h5v1H121zM121 173h5v1H121zM121 174h5v1H121zM121 175h5v1H121zM121 176h5v1H121zM121 177h5v1H121zM121 178h5v1H121zM121 179h5v1H121zM121 180h5v1H121zM121 181h5v1H121zM121 182h5v1H121zM121 183h5v1H121zM121 184h5v1H121zM121 185h5v1H121zM121 186h5v1H121zM121 187h5v1H121zM121 188h5v1H121zM121 189h5v1H121zM121 190h5v1H121zM121 191h5v1H121zM121 192h5v1H121zM121 193h5v1H121zM121 194h5v1H121zM121 195h5v1H121zM121 196h5v1H121zM121 197h5v1H121zM121 198h5v1H121zM121 199h5v1H121z"/><path id="region-left-hip" data-region-code="80" d="M121 200h5v1H121zM121 201h5v1H121zM121 202h5v1H121zM121 203h5v1H121zM121 204h5v1H121zM110 205h27v1H110zM110 206h27v1H110zM111 207h25v1H111zM110 208h26v1H110zM110 209h25v1H110zM110 210h24v1H110zM110 211h24v1H110zM110 212h23v1H110zM110 213h23v1H110zM110 214h22v1H110zM110 215h22v1H110zM110 216h22v1H110zM110 217h22v1H110zM110 218h22v1H110zM110 219h22v1H110zM110 220h22v1H110z"/><path id="region-left-upper-arm" data-region-code="81" d="M110 145h11v1H110zM126 145h13v1H126zM110 146h11v1H110zM126 146h13v1H126zM109 147h12v1H109zM126 147h13v1H126zM109 148h12v1H109zM126 148h13v1H126zM109 149h12v1H109zM126 149h13v1H126zM108 150h13v1H108zM126 150h13v1H126zM108 151h13v1H108zM126 151h13v1H126zM108 152h13v1H108zM126 152h12v1H126zM108 153h13v1H108zM126 153h12v1H126zM108 154h13v1H108zM126 154h12v1H126zM108 155h13v1H108zM126 155h12v1H126zM108 156h13v1H108zM126 156h11v1H126zM108 157h13v1H108zM126 157h11v1H126zM108 158h13v1H108zM126 158h11v1H126z"/><path id="region-left-elbow" data-region-code="82" d="M108 159h13v1H108zM126 159h11v1H126zM108 160h13v1H108zM126 160h10v1H126zM108 161h13v1H108zM126 161h10v1H126zM108 162h13v1H108zM126 162h10v1H126zM108 163h13v1H108zM126 163h10v1H126zM108 164h13v1H108zM126 164h9v1H126zM108 165h13v1H108zM126 165h9v1H126z"/><path id="region-left-forearm" data-region-code="83" d="M108 166h13v1H108zM126 166h9v1H126zM108 167h13v1H108zM126 167h9v1H126zM108 168h13v1H108zM126 168h8v1H126zM108 169h13v1H108zM126 169h8v1H126zM108 170h13v1H108zM126 170h8v1H126zM108 171h13v1H108zM126 171h8v1H126zM108 172h13v1H108zM126 172h7v1H126zM108 173h13v1H108zM126 173h7v1H126zM108 174h13v1H108zM126 174h7v1H126zM108 175h13v1H108zM126 175h7v1H126zM108 176h13v1H108zM126 176h7v1H126zM108 177h13v1H108zM126 177h7v1H126zM108 178h13v1H108zM126 178h7v1H126zM108 179h13v1H108zM126 179h8v1H126zM108 180h13v1H108zM126 180h8v1H126zM108 181h13v1H108zM126 181h8v1H126zM107 182h14v1H107zM126 182h8v1H126z"/><path id="region-left-wrist" data-region-code="84" d="M107 183h14v1H107zM126 183h8v1H126zM107 184h14v1H107zM126 184h9v1H126zM107 185h14v1H107zM126 185h9v1H126zM107 186h14v1H107zM126 186h9v1H126zM107 187h14v1H107zM126 187h9v1H126zM107 188h14v1H107zM126 188h10v1H126z"/><path id="region-left-hand" data-region-code="85" d="M107 189h14v1H107zM126 189h10v1H126zM107 190h14v1H107zM126 190h10v1H126zM107 191h14v1H107zM126 191h11v1H126zM107 192h14v1H107zM126 192h11v1H126zM108 193h13v1H108zM126 193h11v1H126zM108 194h13v1H108zM126 194h12v1H126zM108 195h13v1H108zM126 195h12v1H126zM108 196h13v1H108zM126 196h12v1H126zM108 197h13v1H108zM126 197h12v1H126zM108 198h13v1H108zM126 198h12v1H126z"/><path id="region-left-fingers" data-region-code="86" d="M109 199h12v1H109zM126 199h12v1H126zM109 200h12v1H109zM126 200h12v1H126zM109 201h12v1H109zM126 201h12v1H126zM109 202h12v1H109zM126 202h12v1H126zM110 203h11v1H110zM126 203h12v1H126zM110 204h11v1H110zM126 204h11v1H126z"/><path id="region-left-thigh" data-region-code="87" d="M110 221h22v1H110zM111 222h21v1H111zM111 223h21v1H111zM111 224h21v1H111zM111 225h21v1H111zM111 226h21v1H111zM111 227h21v1H111zM111 228h21v1H111zM112 229h20v1H112zM112 230h20v1H112zM112 231h20v1H112zM112 232h20v1H112zM112 233h20v1H112zM113 234h19v1H113zM113 235h19v1H113zM113 236h19v1H113zM113 237h19v1H113zM113 238h19v1H113zM114 239h18v1H114zM114 240h18v1H114zM114 241h18v1H114zM114 242h18v1H114zM115 243h16v1H115zM115 244h16v1H115zM115 245h16v1H115zM115 246h16v1H115zM115 247h16v1H115zM115 248h16v1H115zM115 249h16v1H115zM115 250h16v1H115z"/><path id="region-left-knee" data-region-code="88" d="M115 251h17v1H115zM116 252h16v1H116zM116 253h16v1H116zM116 254h16v1H116zM117 255h15v1H117zM117 256h15v1H117zM117 257h16v1H117zM118 258h15v1H118zM118 259h15v1H118zM119 260h14v1H119zM119 261h15v1H119zM119 262h15v1H119zM119 263h15v1H119zM119 264h15v1H119zM120 265h14v1H120zM120 266h14v1H120zM120 267h14v1H120z"/><path id="region-left-leg" data-region-code="89" d="M120 268h15v1H120zM120 269h15v1H120zM120 270h15v1H120zM121 271h14v1H121zM121 272h14v1H121zM121 273h14v1H121zM121 274h14v1H121zM121 275h13v1H121zM121 276h13v1H121zM121 277h13v1H121zM122 278h12v1H122zM122 279h12v1H122zM122 280h12v1H122zM122 281h12v1H122zM122 282h12v1H122zM122 283h12v1H122zM123 284h11v1H123zM123 285h11v1H123zM123 286h11v1H123zM123 287h11v1H123zM123 288h11v1H123zM123 289h11v1H123zM123 290h11v1H123zM123 291h11v1H123zM123 292h11v1H123zM124 293h10v1H124zM123 294h11v1H123zM123 295h11v1H123z"/><path id="region-left-ankle" data-region-code="90" d="M123 296h11v1H123zM123 297h11v1H123zM123 298h11v1H123zM123 299h11v1H123zM123 300h11v1H123zM122 301h12v1H122zM122 302h12v1H122zM121 303h13v1H121zM120 304h14v1H120zM119 305h15v1H119zM117 306h17v1H117z"/><path id="region-left-foot" data-region-code="91" d="M116 307h19v1H116zM114 308h21v1H114zM112 309h23v1H112zM110 310h25v1H110zM107 311h28v1H107zM104 312h32v1H104zM103 313h33v1H103zM103 314h32v1H103zM103 315h32v1H103zM105 316h3v1H105zM110 316h6v1H110zM128 316h5v1H128z"/></svg>
