<svg xmlns="http://www.w3.org/2000/svg" viewBox="0 0 240 400"><path id="region-back-occiput" data-region-code="39" d="M117 83h6v1H117zM117 84h6v1H117zM117 85h6v1H117zM117 86h6v1H117zM117 87h6v1H117zM117 88h6v1H117zM117 89h6v1H117zM117 90h6v1H117zM117 91h6v1H117zM117 92h6v1H117zM117 93h6v1H117zM117 94h6v1H117zM117 95h6v1H117zM117 96h6v1H117zM117 97h6v1H117zM117 98h6v1H117zM117 99h6v1H117zM117 100h6v1H117zM117 101h6v1H117zM117 102h6v1H117zM117 103h6v1H117zM117 104h6v1H117zM117 105h6v1H117zM117 106h6v1H117zM117 107h6v1H117zM117 108h6v1H117zM117 109h6v1H117zM117 110h6v1H117zM117 111h6v1H117zM117 112h6v1H117zM117 113h6v1H117zM117 114h6v1H117zM117 115h6v1H117zM117 116h6v1H117zM117 117h6v1H117zM117 118h6v1H117zM117 119h6v1H117zM117 120h6v1H117zM117 121h6v1H117zM117 122h6v1H117zM117 123h6v1H117zM117 124h6v1H117zM117 125h6v1H117zM117 126h6v1H117zM117 127h6v1H117z"/><path id="region-back-neck" data-region-code="40" d="M113 128h14v1H113zM113 129h14v1H113zM112 130h16v1H112zM112 131h16v1H112zM110 132h20v1H110zM108 133h24v1H108zM107 134h26v1H107zM107 135h26v1H107zM107 136h26v1H107zM107 137h26v1H107zM107 138h26v1H107zM107 139h26v1H107zM107 140h26v1H107z"/><path id="region-back-thoracic-spine" data-region-code="41" d="M117 141h6v1H117zM117 142h6v1H117zM117 143h6v1H117zM117 144h6v1H117zM117 145h6v1H117zM117 146h6v1H117zM117 147h6v1H117zM117 148h6v1H117zM117 149h6v1H117zM117 150h6v1H117zM117 151h6v1H117zM117 152h6v1H117zM117 153h6v1H117zM117 154h6v1H117zM117 155h6v1H117zM117 156h6v1H117zM117 157h6v1H117zM117 158h6v1H117zM117 159h6v1H117zM117 160h6v1H117zM117 161h6v1H117zM117 162h6v1H117zM106 163h28v1H106zM106 164h28v1H106zM106 165h28v1H106zM106 166h28v1H106zM106 167h28v1H106zM106 168h28v1H106zM106 169h28v1H106zM106 170h28v1H106zM106 171h28v1H106zM106 172h28v1H106zM106 173h28v1H106zM106 174h28v1H106zM106 175h28v1H106zM106 176h28v1H106zM106 177h28v1H106zM106 178h28v1H106zM106 179h28v1H106zM106 180h28v1H106z"/><path id="region-back-lumbar-spine" data-region-code="42" d="M106 181h28v1H106zM106 182h28v1H106zM106 183h28v1H106zM106 184h28v1H106zM106 185h28v1H106zM106 186h28v1H106zM106 187h28v1H106zM106 188h28v1H106zM106 189h28v1H106zM106 190h28v1H106zM106 191h28v1H106zM106 192h28v1H106zM106 193h28v1H106zM106 194h28v1H106zM106 195h28v1H106zM106 196h28v1H106zM106 197h28v1H106z"/><path id="region-back-sacral" data-region-code="43" d="M116 198h8v1H116zM116 199h8v1H116zM116 200h8v1H116zM116 201h8v1H116zM116 202h8v1H116zM116 203h8v1H116zM116 204h8v1H116zM116 205h8v1H116zM116 206h8v1H116zM116 207h8v1H116zM116 208h8v1H116zM116 209h8v1H116zM116 210h8v1H116zM116 211h8v1H116zM116 212h8v1H116zM116 213h8v1H116zM116 214h8v1H116zM116 215h8v1H116z"/><path id="region-back-left-head" data-region-code="44" d="M113 84h4v1H113zM111 85h6v1H111zM110 86h7v1H110zM109 87h8v1H109zM108 88h9v1H108zM107 89h10v1H107zM106 90h11v1H106zM106 91h11v1H106zM105 92h12v1H105zM105 93h12v1H105zM104 94h13v1H104zM104 95h13v1H104zM104 96h13v1H104zM104 97h13v1H104zM104 98h13v1H104zM104 99h13v1H104zM103 100h14v1H103zM104 101h13v1H104zM104 102h13v1H104zM104 103h13v1H104zM104 104h13v1H104zM104 105h13v1H104zM104 106h13v1H104zM102 107h15v1H102zM101 108h16v1H101zM101 109h16v1H101zM101 110h16v1H101zM101 111h16v1H101zM101 112h16v1H101zM101 113h16v1H101zM102 114h15v1H102zM102 115h15v1H102zM103 116h14v1H103zM104 117h13v1H104zM107 118h10v1H107zM107 119h10v1H107zM108 120h9v1H108zM109 121h8v1H109zM110 122h7v1H110zM111 123h6v1H111zM112 124h5v1H112zM112 125h5v1H112zM113 126h4v1H113zM113 127h4v1H113z"/><path id="region-back-right-head" data-region-code="45" d="M123 84h4v1H123zM123 85h6v1H123zM123 86h7v1H123zM123 87h8v1H123zM123 88h9v1H123zM123 89h10v1H123zM123 90h11v1H123zM123 91h11v1H123zM123 92h12v1H123zM123 93h12v1H123zM123 94h13v1H123zM123 95h13v1H123zM123 96h13v1H123zM123 97h13v1H123zM123 98h13v1H123zM123 99h13v1H123zM123 100h14v1H123zM123 101h13v1H123zM123 102h13v1H123zM123 103h13v1H123zM123 104h13v1H123zM123 105h13v1H123zM123 106h13v1H123zM123 107h15v1H123zM123 108h16v1H123zM123 109h16v1H123zM123 110h16v1H123zM123 111h16v1H123zM123 112h16v1H123zM123 113h16v1H123zM123 114h15v1H123zM123 115h15v1H123zM123 116h14v1H123zM123 117h13v1H123zM123 118h10v1H123zM123 119h10v1H123zM123 120h9v1H123zM123 121h8v1H123zM123 122h7v1H123zM123 123h6v1H123zM123 124h5v1H123zM123 125h5v1H123zM123 126h4v1H123zM123 127h4v1H123z"/><path id="region-back-left-scapular" data-region-code="46" d="M106 134h1v1H106zM106 135h1v1H106zM106 136h1v1H106zM106 137h1v1H106zM106 138h1v1H106zM106 139h1v1H106zM106 140h1v1H106zM106 141h11v1H106zM106 142h11v1H106zM106 143h11v1H106zM106 144h11v1H106zM106 145h11v1H106zM106 146h11v1H106zM106 147h11v1H106zM106 148h11v1H106zM106 149h11v1H106zM106 150h11v1H106zM106 151h11v1H106zM106 152h11v1H106zM106 153h11v1H106zM106 154h11v1H106zM106 155h11v1H106zM106 156h11v1H106zM106 157h11v1H106zM106 158h11v1H106zM106 159h11v1H106zM106 160h11v1H106zM106 161h11v1H106zM106 162h11v1H106z"/><path id="region-back-right-scapular" data-region-code="47" d="M133 134h1v1H133zM133 135h1v1H133zM133 136h1v1H133zM133 137h1v1H133zM133 138h1v1H133zM133 139h1v1H133zM133 140h1v1H133zM123 141h11v1H123zM123 142h11v1H123zM123 143h11v1H123zM123 144h11v1H123zM123 145h11v1H123zM123 146h11v1H123zM123 147h11v1H123zM123 148h11v1H123zM123 149h11v1H123zM123 150h11v1H123zM123 151h11v1H123zM123 152h11v1H123zM123 153h11v1H123zM123 154h11v1H123zM123 155h11v1H123zM123 156h11v1H123zM123 157h11v1H123zM123 158h11v1H123zM123 159h11v1H123zM123 160h11v1H123zM123 161h11v1H123zM123 162h11v1H123z"/><path id="region-back-left-shoulder" data-region-code="48" d="M100 132h3v1H100zM96 133h10v1H96zM95 134h11v1H95zM95 135h11v1H95zM95 136h11v1H95zM95 137h11v1H95zM95 138h11v1H95zM95 139h11v1H95zM95 140h11v1H95zM95 141h11v1H95zM95 142h11v1H95zM95 143h11v1H95zM95 144h11v1H95zM95 145h11v1H95zM95 146h11v1H95zM95 147h11v1H95zM95 148h11v1H95zM95 149h11v1H95zM97 150h9v1H97zM98 151h8v1H98zM98 152h8v1H98zM98 153h8v1H98zM98 154h8v1H98zM99 155h7v1H99zM99 156h7v1H99zM99 157h7v1H99zM99 158h7v1H99zM99 159h7v1H99zM99 160h7v1H99zM99 161h7v1H99zM100 162h6v1H100zM100 163h6v1H100zM100 164h6v1H100zM100 165h6v1H100zM100 166h6v1H100zM100 167h6v1H100zM101 168h5v1H101zM101 169h5v1H101zM101 170h5v1H101zM101 171h5v1H101zM101 172h5v1H101zM101 173h5v1H101zM101 174h5v1H101zM101 175h5v1H101zM101 176h5v1H101zM102 177h4v1H102zM102 178h4v1H102zM102 179h4v1H102zM102 180h4v1H102zM102 181h4v1H102zM102 182h4v1H102zM102 183h4v1H102zM102 184h4v1H102zM102 185h4v1H102zM101 186h5v1H101zM101 187h5v1H101zM101 188h5v1H101zM101 189h5v1H101zM101 190h5v1H101zM101 191h5v1H101zM101 192h5v1H101zM101 193h5v1H101zM101 194h5v1H101zM100 195h6v1H100zM100 196h6v1H100zM100 197h6v1H100zM100 198h6v1H100zM100 199h6v1H100zM100 200h6v1H100zM99 201h7v1H99zM99 202h7v1H99zM99 203h7v1H99zM99 204h7v1H99zM99 205h7v1H99zM98 206h8v1H98zM98 207h8v1H98zM98 208h8v1H98z"/><path id="region-back-right-shoulder" data-region-code="49" d="M137 132h3v1H137zM134 133h10v1H134zM134 134h11v1H134zM134 135h11v1H134zM134 136h11v1H134zM134 137h11v1H134zM134 138h11v1H134zM134 139h11v1H134zM134 140h11v1H134zM134 141h11v1H134zM134 142h11v1H134zM134 143h11v1H134zM134 144h11v1H134zM134 145h11v1H134zM134 146h11v1H134zM134 147h11v1H134zM134 148h11v1H134zM134 149h11v1H134zM134 150h9v1H134zM134 151h8v1H134zM134 152h8v1H134zM134 153h8v1H134zM134 154h8v1H134zM134 155h7v1H134zM134 156h7v1H134zM134 157h7v1H134zM134 158h7v1H134zM134 159h7v1H134zM134 160h7v1H134zM134 161h7v1H134zM134 162h6v1H134zM134 163h6v1H134zM134 164h6v1H134zM134 165h6v1H134zM134 166h6v1H134zM134 167h6v1H134zM134 168h5v1H134zM134 169h5v1H134zM134 170h5v1H134zM134 171h5v1H134zM134 172h5v1H134zM134 173h5v1H134zM134 174h5v1H134zM134 175h5v1H134zM134 176h5v1H134zM134 177h4v1H134zM134 178h4v1H134zM134 179h4v1H134zM134 180h4v1H134zM134 181h4v1H134zM134 182h4v1H134zM134 183h4v1H134zM134 184h4v1H134zM134 185h4v1H134zM134 186h5v1H134zM134 187h5v1H134zM134 188h5v1H134zM134 189h5v1H134zM134 190h5v1H134zM134 191h5v1H134zM134 192h5v1H134zM134 193h5v1H134zM134 194h5v1H134zM134 195h6v1H134zM134 196h6v1H134zM134 197h6v1H134zM134 198h6v1H134zM134 199h6v1H134zM134 200h6v1H134zM134 201h7v1H134zM134 202h7v1H134zM134 203h7v1H134zM134 204h7v1H134zM134 205h7v1H134zM134 206h8v1H134zM134 207h8v1H134zM134 208h8v1H134z"/><path id="region-back-left-upper-arm" data-region-code="50" d="M94 134h1v1H94zM93 135h2v1H93zM92 136h3v1H92zM91 137h4v1H91zM90 138h5v1H90zM89 139h6v1H89zM87 140h8v1H87zM86 141h9v1H86zM85 142h10v1H85zM83 143h12v1H83zM82 144h13v1H82zM80 145h15v1H80zM79 146h16v1H79zM78 147h17v1H78zM77 148h18v1H77zM77 149h18v1H77zM77 150h18v1H77zM77 151h16v1H77zM77 152h15v1H77zM77 153h13v1H77zM77 154h12v1H77zM77 155h11v1H77zM77 156h9v1H77zM77 157h7v1H77zM77 158h6v1H77zM77 159h4v1H77zM77 160h2v1H77z"/><path id="region-back-right-upper-arm" data-region-code="51" d="M145 134h1v1H145zM145 135h2v1H145zM145 136h3v1H145zM145 137h4v1H145zM145 138h5v1H145zM145 139h6v1H145zM145 140h8v1H145zM145 141h9v1H145zM145 142h10v1H145zM145 143h12v1H145zM145 144h13v1H145zM145 145h15v1H145zM145 146h16v1H145zM145 147h17v1H145zM145 148h18v1H145zM145 149h18v1H145zM145 150h18v1H145zM147 151h16v1H147zM148 152h15v1H148zM150 153h13v1H150zM151 154h12v1H151zM152 155h11v1H152zM154 156h9v1H154zM156 157h7v1H156zM157 158h6v1H157zM159 159h4v1H159zM161 160h2v1H161z"/><path id="region-back-left-elbow" data-region-code="52" d="M76 148h1v1H76zM75 149h2v1H75zM74 150h3v1H74zM72 151h5v1H72zM69 152h8v1H69zM69 153h8v1H69zM69 154h8v1H69zM69 155h8v1H69zM69 156h8v1H69zM69 157h8v1H69zM69 158h8v1H69zM69 159h8v1H69zM69 160h8v1H69zM69 161h8v1H69zM69 162h6v1H69zM69 163h4v1H69zM69 164h2v1H69z"/><path id="region-back-right-elbow" data-region-code="53" d="M163 148h1v1H163zM163 149h2v1H163zM163 150h3v1H163zM163 151h5v1H163zM163 152h8v1H163zM163 153h8v1H163zM163 154h8v1H163zM163 155h8v1H163zM163 156h8v1H163zM163 157h8v1H163zM163 158h8v1H163zM163 159h8v1H163zM163 160h8v1H163zM163 161h8v1H163zM165 162h6v1H165zM167 163h4v1H167zM169 164h2v1H169z"/><path id="region-back-left-forearm" data-region-code="54" d="M66 153h3v1H66zM64 154h5v1H64zM62 155h7v1H62zM60 156h9v1H60zM59 157h10v1H59zM57 158h12v1H57zM55 159h14v1H55zM53 160h16v1H53zM51 161h18v1H51zM48 162h21v1H48zM46 163h23v1H46zM46 164h23v1H46zM46 165h22v1H46zM46 166h18v1H46zM46 167h14v1H46zM46 168h10v1H46zM46 169h6v1H46zM46 170h3v1H46zM46 171h2v1H46zM46 172h1v1H46z"/><path id="region-back-right-forearm" data-region-code="55" d="M171 153h3v1H171zM171 154h5v1H171zM171 155h7v1H171zM171 156h9v1H171zM171 157h10v1H171zM171 158h12v1H171zM171 159h14v1H171zM171 160h16v1H171zM171 161h18v1H171zM171 162h21v1H171zM171 163h23v1H171zM171 164h23v1H171zM172 165h22v1H172zM176 166h18v1H176zM180 167h14v1H180zM184 168h10v1H184zM188 169h6v1H188zM191 170h3v1H191zM192 171h2v1H192zM193 172h1v1H193z"/><path id="region-back-left-wrist" data-region-code="56" d="M43 164h3v1H43zM39 165h7v1H39zM39 166h7v1H39zM39 167h7v1H39zM39 168h7v1H39zM39 169h7v1H39zM39 170h7v1H39zM39 171h7v1H39zM39 172h7v1H39zM39 173h7v1H39zM39 174h6v1H39zM39 175h6v1H39zM39 176h5v1H39zM39 177h5v1H39zM39 178h4v1H39zM39 179h3v1H39zM39 180h2v1H39zM39 181h1v1H39z"/><path id="region-back-right-wrist" data-region-code="57" d="M194 164h3v1H194zM194 165h7v1H194zM194 166h7v1H194zM194 167h7v1H194zM194 168h7v1H194zM194 169h7v1H194zM194 170h7v1H194zM194 171h7v1H194zM194 172h7v1H194zM194 173h7v1H194zM195 174h6v1H195zM195 175h6v1H195zM196 176h5v1H196zM196 177h5v1H196zM197 178h4v1H197zM198 179h3v1H198zM199 180h2v1H199zM200 181h1v1H200z"/><path id="region-back-left-hand" data-region-code="58" d="M37 165h2v1H37zM32 166h7v1H32zM29 167h10v1H29zM28 168h11v1H28zM28 169h11v1H28zM28 170h11v1H28zM28 171h11v1H28zM28 172h11v1H28zM28 173h11v1H28zM28 174h11v1H28zM28 175h11v1H28zM28 176h11v1H28zM28 177h11v1H28zM28 178h11v1H28zM28 179h8v1H28zM37 179h2v1H37zM28 180h4v1H28zM36 180h3v1H36zM28 181h1v1H28zM35 181h4v1H35zM35 182h4v1H35zM34 183h5v1H34zM34 184h4v1H34zM35 185h2v1H35z"/><path id="region-back-right-hand" data-region-code="59" d="M201 165h2v1H201zM201 166h7v1H201zM201 167h10v1H201zM201 168h11v1H201zM201 169h11v1H201zM201 170h11v1H201zM201 171h11v1H201zM201 172h11v1H201zM201 173h11v1H201zM201 174h11v1H201zM201 175h11v1H201zM201 176h11v1H201zM201 177h11v1H201zM201 178h11v1H201zM201 179h2v1H201zM204 179h8v1H204zM201 180h3v1H201zM208 180h4v1H208zM201 181h4v1H201zM211 181h1v1H211zM201 182h4v1H201zM201 183h5v1H201zM202 184h4v1H202zM203 185h2v1H203z"/><path id="region-back-left-fingers" data-region-code="60" d="M25 168h3v1H25zM23 169h5v1H23zM22 170h6v1H22zM25 171h3v1H25zM22 172h6v1H22zM21 173h7v1H21zM21 174h7v1H21zM22 175h1v1H22zM24 175h4v1H24zM22 176h6v1H22zM20 177h8v1H20zM20 178h5v1H20zM27 178h1v1H27zM21 179h2v1H21zM25 179h3v1H25zM23 180h5v1H23zM23 181h5v1H23zM24 182h2v1H24z"/><path id="region-back-right-fingers" data-region-code="61" d="M212 168h3v1H212zM212 169h5v1H212zM212 170h6v1H212zM212 171h3v1H212zM212 172h6v1H212zM212 173h7v1H212zM212 174h7v1H212zM212 175h4v1H212zM217 175h1v1H217zM212 176h6v1H212zM212 177h8v1H212zM212 178h1v1H212zM215 178h5v1H215zM212 179h3v1H212zM217 179h2v1H217zM212 180h5v1H212zM212 181h5v1H212zM214 182h2v1H214z"/><path id="region-back-left-buttock" data-region-code="62" d="M106 198h10v1H106zM106 199h10v1H106zM106 200h10v1H106zM106 201h10v1H106zM106 202h10v1H106zM106 203h10v1H106zM106 204h10v1H106zM106 205h10v1H106zM106 206h10v1H106zM106 207h10v1H106zM106 208h10v1H106zM98 209h18v1H98zM98 210h18v1H98zM97 211h19v1H97zM97 212h19v1H97zM97 213h19v1H97zM97 214h19v1H97zM97 215h19v1H97z"/><path id="region-back-right-buttock" data-region-code="63" d="M124 198h10v1H124zM124 199h10v1H124zM124 200h10v1H124zM124 201h10v1H124zM124 202h10v1H124zM124 203h10v1H124zM124 204h10v1H124zM124 205h10v1H124zM124 206h10v1H124zM124 207h10v1H124zM124 208h10v1H124zM124 209h18v1H124zM124 210h18v1H124zM124 211h19v1H124zM124 212h19v1H124zM124 213h19v1H124zM124 214h19v1H124zM124 215h19v1H124z"/><path id="region-back-left-thigh" data-region-code="64" d="M97 216h23v1H97zM97 217h23v1H97zM97 218h23v1H97zM97 219h23v1H97zM97 220h23v1H97zM96 221h22v1H96zM96 222h22v1H96zM96 223h21v1H96zM96 224h21v1H96zM96 225h21v1H96zM96 226h21v1H96zM96 227h20v1H96zM96 228h20v1H96zM96 229h20v1H96zM96 230h20v1H96zM96 231h20v1H96zM96 232h20v1H96zM96 233h20v1H96zM96 234h19v1H96zM96 235h19v1H96zM96 236h19v1H96zM96 237h19v1H96zM96 238h18v1H96zM96 239h18v1H96zM97 240h17v1H97zM97 241h17v1H97zM97 242h16v1H97zM97 243h16v1H97zM97 244h16v1H97zM97 245h16v1H97zM97 246h15v1H97zM97 247h15v1H97zM97 248h15v1H97zM97 249h15v1H97zM97 250h15v1H97z"/><path id="region-back-right-thigh" data-region-code="65" d="M120 216h23v1H120zM120 217h23v1H120zM120 218h23v1H120zM120 219h23v1H120zM120 220h23v1H120zM122 221h22v1H122zM122 222h22v1H122zM123 223h21v1H123zM123 224h21v1H123zM123 225h21v1H123zM123 226h21v1H123zM124 227h20v1H124zM124 228h20v1H124zM124 229h20v1H124zM124 230h20v1H124zM124 231h20v1H124zM124 232h20v1H124zM124 233h20v1H124zM125 234h19v1H125zM125 235h19v1H125zM125 236h19v1H125zM125 237h19v1H125zM126 238h18v1H126zM126 239h18v1H126zM126 240h17v1H126zM126 241h17v1H126zM127 242h16v1H127zM127 243h16v1H127zM127 244h16v1H127zM127 245h16v1H127zM128 246h15v1H128zM128 247h15v1H128zM128 248h15v1H128zM128 249h15v1H128zM128 250h15v1H128z"/><path id="region-back-left-knee" data-region-code="66" d="M97 251h15v1H97zM97 252h15v1H97zM97 253h15v1H97zM97 254h15v1H97zM97 255h14v1H97zM97 256h14v1H97zM96 257h15v1H96zM96 258h15v1H96zM96 259h14v1H96zM96 260h14v1H96zM96 261h14v1H96zM96 262h14v1H96zM96 263h13v1H96zM96 264h13v1H96zM96 265h13v1H96zM95 266h14v1H95zM95 267h14v1H95z"/><path id="region-back-right-knee" data-region-code="67" d="M128 251h15v1H128zM128 252h15v1H128zM128 253h15v1H128zM128 254h15v1H128zM129 255h14v1H129zM129 256h14v1H129zM129 257h15v1H129zM129 258h15v1H129zM130 259h14v1H130zM130 260h14v1H130zM130 261h14v1H130zM130 262h14v1H130zM131 263h13v1H131zM131 264h13v1H131zM131 265h13v1H131zM131 266h14v1H131zM131 267h14v1H131z"/><path id="region-back-left-calf" data-region-code="68" d="M95 268h14v1H95zM95 269h14v1H95zM95 270h14v1H95zM95 271h14v1H95zM95 272h14v1H95zM95 273h13v1H95zM95 274h13v1H95zM95 275h13v1H95zM95 276h13v1H95zM95 277h13v1H95zM95 278h13v1H95zM95 279h12v1H95zM95 280h12v1H95zM95 281h12v1H95zM95 282h12v1H95zM95 283h11v1H95zM95 284h11v1H95zM95 285h11v1H95zM95 286h11v1H95zM95 287h10v1H95zM95 288h10v1H95zM95 289h10v1H95zM95 290h10v1H95zM95 291h9v1H95zM95 292h9v1H95zM95 293h9v1H95zM95 294h9v1H95zM95 295h9v1H95z"/><path id="region-back-right-calf" data-region-code="69" d="M131 268h14v1H131zM131 269h14v1H131zM131 270h14v1H131zM131 271h14v1H131zM131 272h14v1H131zM132 273h13v1H132zM132 274h13v1H132zM132 275h13v1H132zM132 276h13v1H132zM132 277h13v1H132zM132 278h13v1H132zM133 279h12v1H133zM133 280h12v1H133zM133 281h12v1H133zM133 282h12v1H133zM134 283h11v1H134zM134 284h11v1H134zM134 285h11v1H134zM134 286h11v1H134zM135 287h10v1H135zM135 288h10v1H135zM135 289h10v1H135zM135 290h10v1H135zM136 291h9v1H136zM136 292h9v1H136zM136 293h9v1H136zM136 294h9v1H136zM136 295h9v1H136z"/><path id="region-back-left-ankle" data-region-code="70" d="M95 296h9v1H95zM95 297h9v1H95zM95 298h8v1H95zM95 299h8v1H95zM94 300h9v1H94zM94 301h9v1H94zM94 302h9v1H94zM93 303h10v1H93zM93 304h10v1H93z"/><path id="region-back-right-ankle" data-region-code="71" d="M136 296h9v1H136zM136 297h9v1H136zM137 298h8v1H137zM137 299h8v1H137zM137 300h9v1H137zM137 301h9v1H137zM137 302h9v1H137zM137 303h10v1H137zM137 304h10v1H137z"/><path id="region-back-left-heel" data-region-code="72" d="M93 305h10v1H93zM92 306h11v1H92zM91 307h12v1H91zM91 308h12v1H91zM90 309h13v1H90zM88 310h15v1H88zM87 311h16v1H87zM86 312h17v1H86zM86 313h17v1H86zM87 314h16v1H87zM88 315h14v1H88zM92 316h8v1H92z"/><path id="region-back-right-heel" data-region-code="73" d="M137 305h10v1H137zM137 306h11v1H137zM137 307h12v1H137zM137 308h12v1H137zM137 309h13v1H137zM137 310h15v1H137zM137 311h16v1H137zM137 312h17v1H137zM137 313h17v1H137zM137 314h16v1H137zM138 315h14v1H138zM140 316h8v1H140z"/></svg>
