<svg xmlns="http://www.w3.org/2000/svg" viewBox="0 0 240 400"><path id="region-front-face" data-region-code="1" d="M117 83h6v1H117zM116 84h7v1H116zM116 85h7v1H116zM116 86h7v1H116zM116 87h7v1H116zM116 88h7v1H116zM116 89h7v1H116zM116 90h7v1H116zM116 91h7v1H116zM116 92h7v1H116zM116 93h7v1H116zM116 94h7v1H116zM116 95h7v1H116zM116 96h7v1H116zM116 97h7v1H116zM116 98h7v1H116zM116 99h7v1H116zM116 100h7v1H116zM116 101h7v1H116zM116 102h7v1H116zM116 103h7v1H116zM116 104h7v1H116zM116 105h7v1H116zM116 106h7v1H116zM116 107h7v1H116zM116 108h7v1H116zM116 109h7v1H116zM116 110h7v1H116zM116 111h7v1H116zM116 112h7v1H116zM116 113h7v1H116zM116 114h7v1H116zM116 115h7v1H116zM116 116h7v1H116zM116 117h7v1H116zM116 118h7v1H116zM116 119h7v1H116z"/><path id="region-front-neck" data-region-code="2" d="M113 120h14v1H113zM112 121h16v1H112zM112 122h16v1H112zM111 123h18v1H111zM105 124h29v1H105zM105 125h29v1H105zM105 126h29v1H105zM105 127h29v1H105zM105 128h29v1H105zM105 129h29v1H105zM105 130h29v1H105zM105 131h29v1H105z"/><path id="region-front-chest-center" data-region-code="3" d="M116 132h7v1H116zM116 133h7v1H116zM116 134h7v1H116zM116 135h7v1H116zM116 136h7v1H116zM116 137h7v1H116zM116 138h7v1H116zM116 139h7v1H116zM116 140h7v1H116zM116 141h7v1H116zM116 142h7v1H116zM116 143h7v1H116zM116 144h7v1H116zM116 145h7v1H116zM116 146h7v1H116zM116 147h7v1H116zM116 148h7v1H116zM116 149h7v1H116zM116 150h7v1H116zM116 151h7v1H116zM116 152h7v1H116zM116 153h7v1H116zM116 154h7v1H116zM116 155h7v1H116zM116 156h7v1H116zM116 157h7v1H116zM116 158h7v1H116zM116 159h7v1H116zM116 160h7v1H116zM116 161h7v1H116zM116 162h7v1H116z"/><path id="region-front-upper-abdomen" data-region-code="4" d="M103 163h33v1H103zM103 164h33v1H103zM103 165h33v1H103zM103 166h33v1H103zM103 167h33v1H103zM103 168h33v1H103zM103 169h33v1H103zM103 170h33v1H103zM103 171h33v1H103zM103 172h33v1H103zM103 173h33v1H103zM103 174h33v1H103zM103 175h33v1H103zM103 176h33v1H103zM103 177h33v1H103zM103 178h33v1H103zM103 179h33v1H103zM103 180h33v1H103z"/><path id="region-front-umbilical" data-region-code="5" d="M103 181h33v1H103zM103 182h33v1H103zM103 183h33v1H103zM103 184h33v1H103zM103 185h33v1H103zM103 186h33v1H103zM103 187h33v1H103zM103 188h33v1H103zM103 189h33v1H103zM103 190h33v1H103zM103 191h33v1H103zM103 192h33v1H103zM103 193h33v1H103zM103 194h33v1H103zM103 195h33v1H103zM103 196h33v1H103zM103 197h33v1H103z"/><path id="region-front-lower-abdomen" data-region-code="6" d="M115 198h9v1H115zM115 199h9v1H115zM115 200h9v1H115zM115 201h9v1H115zM115 202h9v1H115zM115 203h9v1H115zM115 204h9v1H115zM115 205h9v1H115zM115 206h9v1H115zM115 207h9v1H115zM115 208h3v1H115zM119 208h2v1H119zM122 208h2v1H122zM115 209h3v1H115zM122 209h2v1H122zM115 210h3v1H115zM122 210h2v1H122zM115 211h2v1H115zM123 211h1v1H123zM115 212h2v1H115zM123 212h1v1H123zM115 213h2v1H115zM123 213h1v1H123zM115 214h2v1H115zM123 214h1v1H123zM115 215h2v1H115zM123 215h1v1H123z"/><path id="region-front-left-cheek" data-region-code="7" d="M123 84h3v1H123zM123 85h5v1H123zM123 86h6v1H123zM123 87h7v1H123zM123 88h7v1H123zM123 89h8v1H123zM123 90h9v1H123zM123 91h9v1H123zM123 92h9v1H123zM123 93h9v1H123zM123 94h10v1H123zM123 95h10v1H123zM123 96h10v1H123zM123 97h10v1H123zM123 98h10v1H123zM123 99h10v1H123zM123 100h10v1H123zM123 101h12v1H123zM123 102h12v1H123zM123 103h13v1H123zM123 104h12v1H123zM123 105h12v1H123zM123 106h12v1H123zM123 107h11v1H123zM123 108h11v1H123zM123 109h10v1H123zM123 110h8v1H123zM123 111h7v1H123zM123 112h7v1H123zM123 113h6v1H123zM123 114h5v1H123zM123 115h5v1H123zM123 116h5v1H123zM123 117h5v1H123zM123 118h4v1H123zM123 119h4v1H123z"/><path id="region-front-right-cheek" data-region-code="8" d="M114 84h2v1H114zM112 85h4v1H112zM111 86h5v1H111zM110 87h6v1H110zM110 88h6v1H110zM109 89h7v1H109zM108 90h8v1H108zM108 91h8v1H108zM108 92h8v1H108zM108 93h8v1H108zM107 94h9v1H107zM107 95h9v1H107zM107 96h9v1H107zM107 97h9v1H107zM107 98h9v1H107zM107 99h9v1H107zM107 100h9v1H107zM105 101h11v1H105zM105 102h11v1H105zM104 103h12v1H104zM105 104h11v1H105zM105 105h11v1H105zM105 106h11v1H105zM106 107h10v1H106zM106 108h10v1H106zM107 109h9v1H107zM109 110h7v1H109zM110 111h6v1H110zM110 112h6v1H110zM111 113h5v1H111zM112 114h4v1H112zM112 115h4v1H112zM112 116h4v1H112zM112 117h4v1H112zM113 118h3v1H113zM113 119h3v1H113z"/><path id="region-front-left-chest" data-region-code="9" d="M134 124h2v1H134zM134 125h2v1H134zM134 126h2v1H134zM134 127h2v1H134zM134 128h2v1H134zM134 129h2v1H134zM134 130h2v1H134zM134 131h2v1H134zM123 132h13v1H123zM123 133h13v1H123zM123 134h13v1H123zM123 135h13v1H123zM123 136h13v1H123zM123 137h13v1H123zM123 138h13v1H123zM123 139h13v1H123zM123 140h13v1H123zM123 141h13v1H123zM123 142h13v1H123zM123 143h13v1H123zM123 144h13v1H123zM123 145h13v1H123zM123 146h13v1H123zM123 147h13v1H123zM123 148h13v1H123zM123 149h13v1H123zM123 150h13v1H123zM123 151h13v1H123zM123 152h13v1H123zM123 153h13v1H123zM123 154h13v1H123zM123 155h13v1H123zM123 156h13v1H123zM123 157h13v1H123zM123 158h13v1H123zM123 159h13v1H123zM123 160h13v1H123zM123 161h13v1H123zM123 162h13v1H123z"/><path id="region-front-right-chest" data-region-code="10" d="M103 123h1v1H103zM103 124h2v1H103zM103 125h2v1H103zM103 126h2v1H103zM103 127h2v1H103zM103 128h2v1H103zM103 129h2v1H103zM103 130h2v1H103zM103 131h2v1H103zM103 132h13v1H103zM103 133h13v1H103zM103 134h13v1H103zM103 135h13v1H103zM103 136h13v1H103zM103 137h13v1H103zM103 138h13v1H103zM103 139h13v1H103zM103 140h13v1H103zM103 141h13v1H103zM103 142h13v1H103zM103 143h13v1H103zM103 144h13v1H103zM103 145h13v1H103zM103 146h13v1H103zM103 147h13v1H103zM103 148h13v1H103zM103 149h13v1H103zM103 150h13v1H103zM103 151h13v1H103zM103 152h13v1H103zM103 153h13v1H103zM103 154h13v1H103zM103 155h13v1H103zM103 156h13v1H103zM103 157h13v1H103zM103 158h13v1H103zM103 159h13v1H103zM103 160h13v1H103zM103 161h13v1H103zM103 162h13v1H103z"/><path id="region-front-left-shoulder" data-region-code="11" d="M136 123h6v1H136zM136 124h8v1H136zM136 125h10v1H136zM136 126h10v1H136zM136 127h10v1H136zM136 128h10v1H136zM136 129h10v1H136zM136 130h10v1H136zM136 131h10v1H136zM136 132h10v1H136zM136 133h10v1H136zM136 134h10v1H136zM136 135h10v1H136zM136 136h10v1H136zM136 137h10v1H136zM136 138h6v1H136zM143 138h3v1H143zM136 139h6v1H136zM145 139h1v1H145zM136 140h5v1H136zM136 141h5v1H136zM136 142h5v1H136zM136 143h5v1H136zM136 144h5v1H136zM136 145h4v1H136zM136 146h4v1H136zM136 147h4v1H136zM136 148h4v1H136zM136 149h4v1H136zM136 150h4v1H136zM136 151h3v1H136zM136 152h3v1H136zM136 153h3v1H136zM136 154h3v1H136zM136 155h3v1H136zM136 156h3v1H136zM136 157h3v1H136zM136 158h3v1H136zM136 159h2v1H136zM136 160h2v1H136zM136 161h2v1H136zM136 162h2v1H136zM136 163h2v1H136zM136 164h2v1H136zM136 165h2v1H136zM136 166h2v1H136zM136 167h1v1H136zM136 168h1v1H136zM136 169h1v1H136zM136 170h1v1H136zM136 171h1v1H136zM136 172h1v1H136zM136 173h1v1H136zM136 174h1v1H136zM136 175h1v1H136zM136 176h2v1H136zM136 177h2v1H136zM136 178h2v1H136zM136 179h2v1H136zM136 180h3v1H136zM136 181h3v1H136zM136 182h3v1H136zM136 183h4v1H136zM136 184h4v1H136zM136 185h4v1H136zM136 186h5v1H136zM136 187h5v1H136zM136 188h5v1H136zM136 189h5v1H136zM136 190h5v1H136zM136 191h6v1H136zM136 192h6v1H136zM136 193h6v1H136zM136 194h6v1H136zM136 195h6v1H136zM136 196h7v1H136zM136 197h7v1H136zM136 198h7v1H136zM136 199h7v1H136zM136 200h7v1H136zM136 201h8v1H136zM136 202h8v1H136zM136 203h8v1H136zM136 204h8v1H136zM136 205h8v1H136zM136 206h8v1H136zM136 207h8v1H136zM136 208h8v1H136z"/><path id="region-front-right-shoulder" data-region-code="12" d="M98 123h5v1H98zM96 124h7v1H96zM94 125h9v1H94zM93 126h10v1H93zM93 127h10v1H93zM93 128h10v1H93zM93 129h10v1H93zM93 130h10v1H93zM93 131h10v1H93zM93 132h10v1H93zM93 133h10v1H93zM93 134h10v1H93zM93 135h10v1H93zM93 136h10v1H93zM93 137h10v1H93zM93 138h4v1H93zM98 138h5v1H98zM93 139h2v1H93zM98 139h5v1H98zM93 140h1v1H93zM99 140h4v1H99zM99 141h4v1H99zM99 142h4v1H99zM99 143h4v1H99zM99 144h4v1H99zM100 145h3v1H100zM100 146h3v1H100zM100 147h3v1H100zM100 148h3v1H100zM100 149h3v1H100zM100 150h3v1H100zM101 151h2v1H101zM101 152h2v1H101zM101 153h2v1H101zM101 154h2v1H101zM101 155h2v1H101zM101 156h2v1H101zM101 157h2v1H101zM101 158h2v1H101zM102 159h1v1H102zM102 160h1v1H102zM102 161h1v1H102zM102 162h1v1H102zM102 163h1v1H102zM102 164h1v1H102zM102 165h1v1H102zM102 166h1v1H102zM102 176h1v1H102zM102 177h1v1H102zM102 178h1v1H102zM102 179h1v1H102zM101 180h2v1H101zM101 181h2v1H101zM101 182h2v1H101zM100 183h3v1H100zM100 184h3v1H100zM100 185h3v1H100zM99 186h4v1H99zM99 187h4v1H99zM99 188h4v1H99zM99 189h4v1H99zM99 190h4v1H99zM98 191h5v1H98zM98 192h5v1H98zM98 193h5v1H98zM98 194h5v1H98zM98 195h5v1H98zM97 196h6v1H97zM97 197h6v1H97zM97 198h6v1H97zM97 199h6v1H97zM97 200h6v1H97zM96 201h7v1H96zM96 202h7v1H96zM96 203h7v1H96zM96 204h7v1H96zM96 205h7v1H96zM96 206h7v1H96zM96 207h7v1H96zM96 208h7v1H96z"/><path id="region-front-left-upper-arm" data-region-code="13" d="M146 126h1v1H146zM146 127h3v1H146zM146 128h4v1H146zM146 129h5v1H146zM146 130h6v1H146zM146 131h7v1H146zM146 132h8v1H146zM146 133h9v1H146zM146 134h11v1H146zM146 135h12v1H146zM146 136h14v1H146zM146 137h15v1H146zM146 138h17v1H146zM146 139h18v1H146zM146 140h18v1H146zM147 141h17v1H147zM149 142h15v1H149zM150 143h14v1H150zM152 144h12v1H152zM154 145h10v1H154zM156 146h8v1H156zM158 147h6v1H158zM160 148h4v1H160zM162 149h2v1H162zM163 150h1v1H163z"/><path id="region-front-right-upper-arm" data-region-code="14" d="M91 127h2v1H91zM90 128h3v1H90zM89 129h4v1H89zM88 130h5v1H88zM87 131h6v1H87zM86 132h7v1H86zM85 133h8v1H85zM83 134h10v1H83zM82 135h11v1H82zM80 136h13v1H80zM79 137h14v1H79zM77 138h16v1H77zM75 139h18v1H75zM75 140h18v1H75zM75 141h18v1H75zM75 142h16v1H75zM75 143h15v1H75zM75 144h13v1H75zM75 145h11v1H75zM75 146h9v1H75zM75 147h7v1H75zM75 148h5v1H75zM75 149h3v1H75zM75 150h2v1H75z"/><path id="region-front-left-elbow" data-region-code="15" d="M164 139h1v1H164zM164 140h3v1H164zM164 141h5v1H164zM164 142h7v1H164zM164 143h8v1H164zM164 144h8v1H164zM164 145h8v1H164zM164 146h8v1H164zM164 147h8v1H164zM164 148h8v1H164zM164 149h8v1H164zM164 150h8v1H164zM165 151h7v1H165zM167 152h5v1H167zM168 153h4v1H168zM171 154h1v1H171z"/><path id="region-front-right-elbow" data-region-code="16" d="M73 140h2v1H73zM71 141h4v1H71zM69 142h6v1H69zM67 143h8v1H67zM67 144h8v1H67zM67 145h8v1H67zM67 146h8v1H67zM67 147h8v1H67zM67 148h8v1H67zM67 149h8v1H67zM67 150h8v1H67zM67 151h8v1H67zM67 152h6v1H67zM67 153h5v1H67zM67 154h2v1H67z"/><path id="region-front-left-forearm" data-region-code="17" d="M172 143h2v1H172zM172 144h4v1H172zM172 145h6v1H172zM172 146h8v1H172zM172 147h10v1H172zM172 148h11v1H172zM172 149h13v1H172zM172 150h15v1H172zM172 151h17v1H172zM172 152h19v1H172zM172 153h21v1H172zM172 154h22v1H172zM174 155h20v1H174zM177 156h17v1H177zM181 157h13v1H181zM185 158h9v1H185zM189 159h5v1H189zM191 160h3v1H191zM192 161h2v1H192z"/><path id="region-front-right-forearm" data-region-code="18" d="M66 143h1v1H66zM64 144h3v1H64zM62 145h5v1H62zM60 146h7v1H60zM58 147h9v1H58zM57 148h10v1H57zM55 149h12v1H55zM53 150h14v1H53zM51 151h16v1H51zM49 152h18v1H49zM47 153h20v1H47zM45 154h22v1H45zM45 155h21v1H45zM45 156h18v1H45zM45 157h14v1H45zM45 158h10v1H45zM45 159h6v1H45zM45 160h4v1H45zM45 161h3v1H45zM45 162h1v1H45z"/><path id="region-front-left-wrist" data-region-code="19" d="M194 154h1v1H194zM194 155h3v1H194zM194 156h6v1H194zM194 157h7v1H194zM194 158h7v1H194zM194 159h7v1H194zM194 160h7v1H194zM194 161h7v1H194zM194 162h7v1H194zM195 163h6v1H195zM196 164h5v1H196zM196 165h5v1H196zM197 166h4v1H197zM198 167h3v1H198zM199 168h2v1H199zM200 169h1v1H200z"/><path id="region-front-right-wrist" data-region-code="20" d="M43 155h2v1H43zM40 156h5v1H40zM38 157h7v1H38zM38 158h7v1H38zM38 159h7v1H38zM38 160h7v1H38zM38 161h7v1H38zM38 162h7v1H38zM38 163h7v1H38zM38 164h6v1H38zM38 165h6v1H38zM38 166h5v1H38zM38 167h4v1H38zM38 168h3v1H38zM38 169h2v1H38zM38 170h1v1H38z"/><path id="region-front-left-palm" data-region-code="21" d="M201 157h6v1H201zM201 158h11v1H201zM201 159h11v1H201zM201 160h11v1H201zM201 161h11v1H201zM201 162h11v1H201zM201 163h11v1H201zM201 164h11v1H201zM201 165h11v1H201zM201 166h11v1H201zM201 167h11v1H201zM201 168h11v1H201zM201 169h3v1H201zM206 169h6v1H206zM201 170h4v1H201zM211 170h1v1H211zM202 171h4v1H202zM203 172h4v1H203zM204 173h3v1H204zM205 174h2v1H205z"/><path id="region-front-right-palm" data-region-code="22" d="M33 157h5v1H33zM28 158h10v1H28zM27 159h11v1H27zM27 160h11v1H27zM27 161h11v1H27zM27 162h11v1H27zM27 163h11v1H27zM27 164h11v1H27zM27 165h11v1H27zM27 166h11v1H27zM27 167h11v1H27zM27 168h11v1H27zM27 169h7v1H27zM36 169h2v1H36zM27 170h2v1H27zM35 170h3v1H35zM34 171h4v1H34zM33 172h4v1H33zM33 173h3v1H33zM33 174h2v1H33z"/><path id="region-front-left-fingers" data-region-code="23" d="M212 159h5v1H212zM212 160h5v1H212zM212 161h3v1H212zM212 162h6v1H212zM212 163h8v1H212zM212 164h8v1H212zM212 165h5v1H212zM212 166h8v1H212zM212 167h8v1H212zM212 168h3v1H212zM217 168h3v1H217zM212 169h5v1H212zM212 170h6v1H212zM215 171h2v1H215z"/><path id="region-front-right-fingers" data-region-code="24" d="M23 159h4v1H23zM23 160h4v1H23zM25 161h2v1H25zM22 162h5v1H22zM20 163h7v1H20zM20 164h7v1H20zM23 165h4v1H23zM20 166h7v1H20zM20 167h7v1H20zM20 168h3v1H20zM25 168h2v1H25zM23 169h4v1H23zM22 170h5v1H22zM23 171h2v1H23z"/><path id="region-front-left-groin" data-region-code="25" d="M124 198h12v1H124zM124 199h12v1H124zM124 200h12v1H124zM124 201h12v1H124zM124 202h12v1H124zM124 203h12v1H124zM124 204h12v1H124zM124 205h12v1H124zM124 206h12v1H124zM124 207h12v1H124zM124 208h12v1H124zM124 209h21v1H124zM124 210h21v1H124zM124 211h21v1H124zM124 212h21v1H124zM124 213h21v1H124zM124 214h21v1H124zM124 215h21v1H124z"/><path id="region-front-right-groin" data-region-code="26" d="M103 198h12v1H103zM103 199h12v1H103zM103 200h12v1H103zM103 201h12v1H103zM103 202h12v1H103zM103 203h12v1H103zM103 204h12v1H103zM103 205h12v1H103zM103 206h12v1H103zM103 207h12v1H103zM103 208h12v1H103zM95 209h20v1H95zM95 210h20v1H95zM95 211h20v1H95zM95 212h20v1H95zM95 213h20v1H95zM95 214h20v1H95zM95 215h20v1H95z"/><path id="region-front-left-thigh" data-region-code="27" d="M123 216h22v1H123zM124 217h21v1H124zM124 218h21v1H124zM124 219h21v1H124zM124 220h21v1H124zM125 221h20v1H125zM125 222h20v1H125zM125 223h20v1H125zM125 224h20v1H125zM125 225h20v1H125zM126 226h19v1H126zM126 227h19v1H126zM126 228h19v1H126zM126 229h18v1H126zM127 230h17v1H127zM127 231h17v1H127zM127 232h17v1H127zM127 233h17v1H127zM127 234h17v1H127zM127 235h17v1H127zM128 236h16v1H128zM128 237h16v1H128zM128 238h16v1H128zM128 239h16v1H128zM128 240h16v1H128zM128 241h16v1H128zM128 242h16v1H128zM129 243h15v1H129zM129 244h15v1H129zM129 245h15v1H129zM129 246h15v1H129zM129 247h15v1H129zM129 248h15v1H129zM129 249h15v1H129zM129 250h15v1H129z"/><path id="region-front-right-thigh" data-region-code="28" d="M95 216h22v1H95zM95 217h21v1H95zM95 218h21v1H95zM95 219h21v1H95zM95 220h21v1H95zM95 221h20v1H95zM95 222h20v1H95zM95 223h20v1H95zM95 224h20v1H95zM95 225h20v1H95zM95 226h19v1H95zM95 227h19v1H95zM95 228h19v1H95zM96 229h18v1H96zM96 230h17v1H96zM96 231h17v1H96zM96 232h17v1H96zM96 233h17v1H96zM96 234h17v1H96zM96 235h17v1H96zM96 236h16v1H96zM96 237h16v1H96zM96 238h16v1H96zM96 239h16v1H96zM96 240h16v1H96zM96 241h16v1H96zM96 242h16v1H96zM96 243h15v1H96zM96 244h15v1H96zM96 245h15v1H96zM96 246h15v1H96zM96 247h15v1H96zM96 248h15v1H96zM96 249h15v1H96zM96 250h15v1H96z"/><path id="region-front-left-knee" data-region-code="29" d="M129 251h15v1H129zM130 252h14v1H130zM130 253h14v1H130zM130 254h14v1H130zM130 255h14v1H130zM131 256h13v1H131zM131 257h14v1H131zM131 258h14v1H131zM132 259h13v1H132zM132 260h13v1H132zM132 261h14v1H132zM132 262h14v1H132zM132 263h14v1H132zM132 264h14v1H132zM132 265h14v1H132zM132 266h15v1H132zM132 267h15v1H132z"/><path id="region-front-right-knee" data-region-code="30" d="M96 251h15v1H96zM96 252h14v1H96zM96 253h14v1H96zM96 254h14v1H96zM96 255h14v1H96zM96 256h13v1H96zM95 257h14v1H95zM95 258h14v1H95zM95 259h13v1H95zM95 260h13v1H95zM94 261h14v1H94zM94 262h14v1H94zM94 263h14v1H94zM94 264h14v1H94zM94 265h14v1H94zM93 266h15v1H93zM93 267h15v1H93z"/><path id="region-front-left-leg" data-region-code="31" d="M132 268h15v1H132zM132 269h15v1H132zM132 270h15v1H132zM132 271h15v1H132zM133 272h14v1H133zM133 273h14v1H133zM133 274h14v1H133zM133 275h14v1H133zM133 276h14v1H133zM134 277h13v1H134zM134 278h13v1H134zM134 279h13v1H134zM135 280h12v1H135zM135 281h12v1H135zM135 282h12v1H135zM135 283h12v1H135zM135 284h12v1H135zM136 285h11v1H136zM136 286h11v1H136zM136 287h11v1H136zM136 288h10v1H136zM137 289h9v1H137zM137 290h9v1H137zM137 291h9v1H137zM137 292h9v1H137zM137 293h9v1H137zM138 294h8v1H138zM138 295h8v1H138z"/><path id="region-front-right-leg" data-region-code="32" d="M93 268h15v1H93zM93 269h15v1H93zM93 270h15v1H93zM93 271h15v1H93zM93 272h14v1H93zM93 273h14v1H93zM93 274h14v1H93zM93 275h14v1H93zM93 276h14v1H93zM93 277h13v1H93zM93 278h13v1H93zM93 279h13v1H93zM93 280h13v1H93zM93 281h12v1H93zM93 282h12v1H93zM93 283h12v1H93zM93 284h12v1H93zM93 285h11v1H93zM93 286h11v1H93zM93 287h11v1H93zM94 288h10v1H94zM94 289h9v1H94zM94 290h9v1H94zM94 291h9v1H94zM94 292h9v1H94zM94 293h9v1H94zM94 294h8v1H94zM94 295h8v1H94z"/><path id="region-front-left-ankle" data-region-code="33" d="M138 296h8v1H138zM138 297h8v1H138zM138 298h8v1H138zM138 299h9v1H138zM138 300h9v1H138zM138 301h9v1H138zM138 302h9v1H138zM138 303h9v1H138zM138 304h10v1H138z"/><path id="region-front-right-ankle" data-region-code="34" d="M94 296h8v1H94zM94 297h8v1H94zM94 298h8v1H94zM93 299h9v1H93zM93 300h9v1H93zM93 301h9v1H93zM93 302h9v1H93zM93 303h9v1H93zM92 304h10v1H92z"/><path id="region-front-left-foot" data-region-code="35" d="M138 305h10v1H138zM139 306h9v1H139zM139 307h10v1H139zM139 308h10v1H139zM139 309h11v1H139zM139 310h12v1H139zM139 311h14v1H139zM139 312h15v1H139z"/><path id="region-front-right-foot" data-region-code="36" d="M92 305h10v1H92zM92 306h9v1H92zM91 307h10v1H91zM91 308h10v1H91zM90 309h11v1H90zM89 310h12v1H89zM87 311h14v1H87zM86 312h15v1H86z"/><path id="region-front-left-toes" data-region-code="37" d="M139 313h16v1H139zM139 314h16v1H139zM140 315h14v1H140zM141 316h7v1H141z"/><path id="region-front-right-toes" data-region-code="38" d="M85 313h16v1H85zM85 314h16v1H85zM86 315h14v1H86zM92 316h7v1H92z"/></svg>
