<svg xmlns="http://www.w3.org/2000/svg" viewBox="0 0 240 400"><path id="region-front-face" data-region-code="1" d="M117 18h6v1H117zM116 19h9v1H116zM116 20h9v1H116zM116 21h9v1H116zM116 22h9v1H116zM116 23h9v1H116zM116 24h9v1H116zM116 25h9v1H116zM116 26h9v1H116zM116 27h9v1H116zM116 28h9v1H116zM116 29h9v1H116zM116 30h9v1H116zM116 31h9v1H116zM116 32h9v1H116zM116 33h9v1H116zM116 34h9v1H116zM116 35h9v1H116zM116 36h9v1H116zM116 37h9v1H116zM116 38h9v1H116zM116 39h9v1H116zM116 40h9v1H116zM116 41h9v1H116zM116 42h9v1H116zM116 43h9v1H116zM116 44h9v1H116zM116 45h9v1H116zM116 46h9v1H116zM116 47h9v1H116zM116 48h9v1H116zM116 49h9v1H116zM116 50h9v1H116zM116 51h9v1H116zM116 52h9v1H116zM116 53h9v1H116zM116 54h9v1H116zM116 55h9v1H116zM116 56h9v1H116zM116 57h9v1H116zM116 58h9v1H116zM116 59h9v1H116zM116 60h9v1H116zM116 61h9v1H116zM116 62h9v1H116zM116 63h9v1H116zM116 64h9v1H116zM116 65h9v1H116zM116 66h9v1H116zM116 67h9v1H116zM116 68h9v1H116zM116 69h9v1H116zM116 70h9v1H116zM116 71h9v1H116zM116 72h9v1H116zM116 73h9v1H116zM116 74h9v1H116z"/><path id="region-front-neck" data-region-code="2" d="M103 75h34v1H103zM101 76h38v1H101zM99 77h42v1H99zM98 78h45v1H98zM98 79h45v1H98zM98 80h45v1H98zM98 81h45v1H98zM98 82h45v1H98zM98 83h45v1H98zM98 84h45v1H98zM98 85h45v1H98zM98 86h45v1H98zM98 87h45v1H98zM98 88h45v1H98zM98 89h45v1H98zM98 90h45v1H98zM98 91h45v1H98zM98 92h45v1H98zM98 93h45v1H98zM98 94h45v1H98z"/><path id="region-front-chest-center" data-region-code="3" d="M115 95h11v1H115zM115 96h11v1H115zM115 97h11v1H115zM115 98h11v1H115zM115 99h11v1H115zM115 100h11v1H115zM115 101h11v1H115zM115 102h11v1H115zM115 103h11v1H115zM115 104h11v1H115zM115 105h11v1H115zM115 106h11v1H115zM115 107h11v1H115zM115 108h11v1H115zM115 109h11v1H115zM115 110h11v1H115zM115 111h11v1H115zM115 112h11v1H115zM115 113h11v1H115zM115 114h11v1H115zM115 115h11v1H115zM115 116h11v1H115zM115 117h11v1H115zM115 118h11v1H115zM115 119h11v1H115zM115 120h11v1H115zM115 121h11v1H115zM115 122h11v1H115zM115 123h11v1H115zM115 124h11v1H115zM115 125h11v1H115zM115 126h11v1H115zM115 127h11v1H115zM115 128h11v1H115zM115 129h11v1H115zM115 130h11v1H115zM115 131h11v1H115zM115 132h11v1H115zM115 133h11v1H115zM115 134h11v1H115zM115 135h11v1H115zM115 136h11v1H115zM115 137h11v1H115zM115 138h11v1H115zM115 139h11v1H115zM115 140h11v1H115zM115 141h11v1H115z"/><path id="region-front-upper-abdomen" data-region-code="4" d="M96 142h49v1H96zM96 143h49v1H96zM96 144h49v1H96zM96 145h49v1H96zM96 146h49v1H96zM96 147h49v1H96zM96 148h49v1H96zM96 149h49v1H96zM96 150h49v1H96zM96 151h49v1H96zM96 152h49v1H96zM96 153h49v1H96zM96 154h49v1H96zM96 155h49v1H96zM96 156h49v1H96zM96 157h49v1H96zM96 158h49v1H96zM96 159h49v1H96zM96 160h49v1H96zM96 161h49v1H96zM96 162h49v1H96zM96 163h49v1H96zM96 164h49v1H96zM96 165h49v1H96zM96 166h49v1H96zM96 167h49v1H96zM96 168h49v1H96zM96 169h49v1H96zM96 170h49v1H96z"/><path id="region-front-umbilical" data-region-code="5" d="M96 171h49v1H96zM96 172h49v1H96zM96 173h49v1H96zM96 174h49v1H96zM96 175h49v1H96zM96 176h49v1H96zM96 177h49v1H96zM96 178h49v1H96zM96 179h49v1H96zM96 180h49v1H96zM96 181h49v1H96zM96 182h49v1H96zM96 183h49v1H96zM96 184h49v1H96zM96 185h49v1H96zM96 186h49v1H96zM96 187h49v1H96zM96 188h49v1H96zM96 189h49v1H96zM96 190h49v1H96zM96 191h49v1H96zM96 192h49v1H96zM96 193h49v1H96zM96 194h49v1H96zM96 195h49v1H96z"/><path id="region-front-lower-abdomen" data-region-code="6" d="M114 196h13v1H114zM114 197h13v1H114zM114 198h13v1H114zM114 199h13v1H114zM114 200h13v1H114zM114 201h13v1H114zM114 202h13v1H114zM114 203h13v1H114zM114 204h13v1H114zM114 205h13v1H114zM114 206h13v1H114zM114 207h13v1H114zM114 208h13v1H114zM114 209h13v1H114zM114 210h13v1H114zM114 211h13v1H114zM114 212h13v1H114zM114 213h13v1H114zM114 214h13v1H114zM114 215h5v1H114zM121 215h6v1H121zM114 216h4v1H114zM122 216h5v1H122zM114 217h4v1H114zM122 217h5v1H122zM114 218h4v1H114zM122 218h5v1H122zM114 219h3v1H114zM123 219h4v1H123zM114 220h3v1H114zM123 220h4v1H123zM114 221h3v1H114zM123 221h4v1H123zM114 222h2v1H114zM124 222h3v1H124zM114 223h2v1H114zM124 223h3v1H124zM114 224h2v1H114zM124 224h3v1H124z"/><path id="region-front-left-cheek" data-region-code="7" d="M125 19h2v1H125zM125 20h4v1H125zM125 21h6v1H125zM125 22h7v1H125zM125 23h8v1H125zM125 24h9v1H125zM125 25h10v1H125zM125 26h10v1H125zM125 27h11v1H125zM125 28h11v1H125zM125 29h12v1H125zM125 30h12v1H125zM125 31h12v1H125zM125 32h13v1H125zM125 33h13v1H125zM125 34h13v1H125zM125 35h13v1H125zM125 36h13v1H125zM125 37h13v1H125zM125 38h13v1H125zM125 39h13v1H125zM125 40h13v1H125zM125 41h13v1H125zM125 42h13v1H125zM125 43h15v1H125zM125 44h16v1H125zM125 45h16v1H125zM125 46h16v1H125zM125 47h16v1H125zM125 48h16v1H125zM125 49h16v1H125zM125 50h16v1H125zM125 51h15v1H125zM125 52h15v1H125zM125 53h15v1H125zM125 54h15v1H125zM125 55h14v1H125zM125 56h12v1H125zM125 57h11v1H125zM125 58h10v1H125zM125 59h10v1H125zM125 60h10v1H125zM125 61h9v1H125zM125 62h9v1H125zM125 63h8v1H125zM125 64h8v1H125zM125 65h8v1H125zM125 66h8v1H125zM125 67h8v1H125zM125 68h8v1H125zM125 69h8v1H125zM125 70h8v1H125zM125 71h9v1H125zM125 72h9v1H125zM125 73h10v1H125zM125 74h11v1H125z"/><path id="region-front-right-cheek" data-region-code="8" d="M113 19h3v1H113zM111 20h5v1H111zM109 21h7v1H109zM108 22h8v1H108zM107 23h9v1H107zM106 24h10v1H106zM105 25h11v1H105zM105 26h11v1H105zM104 27h12v1H104zM104 28h12v1H104zM103 29h13v1H103zM103 30h13v1H103zM103 31h13v1H103zM102 32h14v1H102zM102 33h14v1H102zM102 34h14v1H102zM102 35h14v1H102zM102 36h14v1H102zM102 37h14v1H102zM102 38h14v1H102zM102 39h14v1H102zM102 40h14v1H102zM102 41h14v1H102zM102 42h14v1H102zM100 43h16v1H100zM99 44h17v1H99zM99 45h17v1H99zM99 46h17v1H99zM99 47h17v1H99zM99 48h17v1H99zM99 49h17v1H99zM99 50h17v1H99zM100 51h16v1H100zM100 52h16v1H100zM100 53h16v1H100zM100 54h16v1H100zM101 55h15v1H101zM103 56h13v1H103zM104 57h12v1H104zM105 58h11v1H105zM105 59h11v1H105zM105 60h11v1H105zM106 61h10v1H106zM106 62h10v1H106zM107 63h9v1H107zM107 64h9v1H107zM107 65h9v1H107zM107 66h9v1H107zM107 67h9v1H107zM107 68h9v1H107zM107 69h9v1H107zM107 70h9v1H107zM106 71h10v1H106zM106 72h10v1H106zM105 73h11v1H105zM104 74h12v1H104z"/><path id="region-front-left-chest" data-region-code="9" d="M143 78h1v1H143zM143 79h2v1H143zM143 80h2v1H143zM143 81h2v1H143zM143 82h2v1H143zM143 83h2v1H143zM143 84h2v1H143zM143 85h2v1H143zM143 86h2v1H143zM143 87h2v1H143zM143 88h2v1H143zM143 89h2v1H143zM143 90h2v1H143zM143 91h2v1H143zM143 92h2v1H143zM143 93h2v1H143zM143 94h2v1H143zM126 95h19v1H126zM126 96h19v1H126zM126 97h19v1H126zM126 98h19v1H126zM126 99h19v1H126zM126 100h19v1H126zM126 101h19v1H126zM126 102h19v1H126zM126 103h19v1H126zM126 104h19v1H126zM126 105h19v1H126zM126 106h19v1H126zM126 107h19v1H126zM126 108h19v1H126zM126 109h19v1H126zM126 110h19v1H126zM126 111h19v1H126zM126 112h19v1H126zM126 113h19v1H126zM126 114h19v1H126zM126 115h19v1H126zM126 116h19v1H126zM126 117h19v1H126zM126 118h19v1H126zM126 119h19v1H126zM126 120h19v1H126zM126 121h19v1H126zM126 122h19v1H126zM126 123h19v1H126zM126 124h19v1H126zM126 125h19v1H126zM126 126h19v1H126zM126 127h19v1H126zM126 128h19v1H126zM126 129h19v1H126zM126 130h19v1H126zM126 131h19v1H126zM126 132h19v1H126zM126 133h19v1H126zM126 134h19v1H126zM126 135h19v1H126zM126 136h19v1H126zM126 137h19v1H126zM126 138h19v1H126zM126 139h19v1H126zM126 140h19v1H126zM126 141h19v1H126z"/><path id="region-front-right-chest" data-region-code="10" d="M96 78h2v1H96zM96 79h2v1H96zM96 80h2v1H96zM96 81h2v1H96zM96 82h2v1H96zM96 83h2v1H96zM96 84h2v1H96zM96 85h2v1H96zM96 86h2v1H96zM96 87h2v1H96zM96 88h2v1H96zM96 89h2v1H96zM96 90h2v1H96zM96 91h2v1H96zM96 92h2v1H96zM96 93h2v1H96zM96 94h2v1H96zM96 95h19v1H96zM96 96h19v1H96zM96 97h19v1H96zM96 98h19v1H96zM96 99h19v1H96zM96 100h19v1H96zM96 101h19v1H96zM96 102h19v1H96zM96 103h19v1H96zM96 104h19v1H96zM96 105h19v1H96zM96 106h19v1H96zM96 107h19v1H96zM96 108h19v1H96zM96 109h19v1H96zM96 110h19v1H96zM96 111h19v1H96zM96 112h19v1H96zM96 113h19v1H96zM96 114h19v1H96zM96 115h19v1H96zM96 116h19v1H96zM96 117h19v1H96zM96 118h19v1H96zM96 119h19v1H96zM96 120h19v1H96zM96 121h19v1H96zM96 122h19v1H96zM96 123h19v1H96zM96 124h19v1H96zM96 125h19v1H96zM96 126h19v1H96zM96 127h19v1H96zM96 128h19v1H96zM96 129h19v1H96zM96 130h19v1H96zM96 131h19v1H96zM96 132h19v1H96zM96 133h19v1H96zM96 134h19v1H96zM96 135h19v1H96zM96 136h19v1H96zM96 137h19v1H96zM96 138h19v1H96zM96 139h19v1H96zM96 140h19v1H96zM96 141h19v1H96z"/><path id="region-front-left-shoulder" data-region-code="11" d="M145 79h1v1H145zM145 80h4v1H145zM145 81h7v1H145zM145 82h9v1H145zM145 83h11v1H145zM145 84h11v1H145zM145 85h11v1H145zM145 86h11v1H145zM145 87h11v1H145zM145 88h11v1H145zM145 89h11v1H145zM145 90h11v1H145zM145 91h11v1H145zM145 92h11v1H145zM145 93h11v1H145zM145 94h11v1H145zM145 95h11v1H145zM145 96h11v1H145zM145 97h11v1H145zM145 98h11v1H145zM145 99h11v1H145zM145 100h11v1H145zM145 101h11v1H145zM145 102h11v1H145zM145 103h11v1H145zM145 104h11v1H145zM145 105h11v1H145zM145 106h11v1H145zM145 107h11v1H145zM145 108h11v1H145zM145 109h11v1H145zM145 110h11v1H145zM145 111h11v1H145zM145 112h10v1H145zM145 113h10v1H145zM145 114h10v1H145zM145 115h9v1H145zM145 116h9v1H145zM145 117h9v1H145zM145 118h9v1H145zM145 119h9v1H145zM145 120h8v1H145zM145 121h8v1H145zM145 122h8v1H145zM145 123h8v1H145zM145 124h8v1H145zM145 125h8v1H145zM145 126h7v1H145zM145 127h7v1H145zM145 128h7v1H145zM145 129h7v1H145zM145 130h7v1H145zM145 131h6v1H145zM145 132h6v1H145zM145 133h6v1H145zM145 134h6v1H145zM145 135h6v1H145zM145 136h6v1H145zM145 137h6v1H145zM145 138h6v1H145zM145 139h6v1H145zM145 140h5v1H145zM145 141h5v1H145zM145 142h5v1H145zM145 143h5v1H145zM145 144h5v1H145zM145 145h5v1H145zM145 146h5v1H145zM145 147h5v1H145zM145 148h5v1H145zM145 149h5v1H145zM145 150h5v1H145zM145 151h5v1H145zM145 152h5v1H145zM145 153h5v1H145zM145 154h5v1H145zM145 155h5v1H145zM145 156h5v1H145zM145 157h5v1H145zM145 158h5v1H145zM145 159h5v1H145zM145 160h5v1H145zM145 161h5v1H145zM145 162h5v1H145zM145 163h6v1H145zM145 164h6v1H145zM145 165h6v1H145zM145 166h6v1H145zM145 167h6v1H145zM145 168h6v1H145zM145 169h6v1H145zM145 170h6v1H145zM145 171h6v1H145zM145 172h6v1H145zM145 173h6v1H145zM145 174h7v1H145zM145 175h7v1H145zM145 176h7v1H145zM145 177h7v1H145zM145 178h7v1H145zM145 179h7v1H145zM145 180h7v1H145zM145 181h7v1H145zM145 182h8v1H145zM145 183h8v1H145zM145 184h8v1H145zM145 185h8v1H145zM145 186h8v1H145zM145 187h8v1H145zM145 188h9v1H145zM145 189h9v1H145zM145 190h9v1H145zM145 191h9v1H145zM145 192h9v1H145zM145 193h9v1H145zM145 194h10v1H145zM145 195h10v1H145zM145 196h10v1H145zM145 197h10v1H145zM145 198h10v1H145zM145 199h10v1H145zM145 200h11v1H145zM145 201h11v1H145zM145 202h11v1H145zM145 203h11v1H145zM145 204h11v1H145zM145 205h11v1H145zM145 206h11v1H145zM145 207h11v1H145zM145 208h11v1H145zM145 209h11v1H145zM145 210h11v1H145zM145 211h11v1H145zM145 212h11v1H145zM145 213h11v1H145zM145 214h11v1H145z"/><path id="region-front-right-shoulder" data-region-code="12" d="M94 79h2v1H94zM91 80h5v1H91zM88 81h8v1H88zM86 82h10v1H86zM85 83h11v1H85zM85 84h11v1H85zM85 85h11v1H85zM85 86h11v1H85zM85 87h11v1H85zM85 88h11v1H85zM85 89h11v1H85zM85 90h11v1H85zM85 91h11v1H85zM85 92h11v1H85zM85 93h11v1H85zM85 94h11v1H85zM85 95h11v1H85zM85 96h11v1H85zM85 97h11v1H85zM85 98h11v1H85zM85 99h11v1H85zM85 100h11v1H85zM85 101h11v1H85zM85 102h11v1H85zM85 103h11v1H85zM85 104h11v1H85zM85 105h11v1H85zM85 106h11v1H85zM85 107h11v1H85zM85 108h11v1H85zM85 109h11v1H85zM85 110h11v1H85zM85 111h11v1H85zM85 112h11v1H85zM85 113h11v1H85zM85 114h11v1H85zM86 115h10v1H86zM86 116h10v1H86zM86 117h10v1H86zM86 118h10v1H86zM86 119h10v1H86zM87 120h9v1H87zM87 121h9v1H87zM87 122h9v1H87zM87 123h9v1H87zM87 124h9v1H87zM87 125h9v1H87zM88 126h8v1H88zM88 127h8v1H88zM88 128h8v1H88zM88 129h8v1H88zM88 130h8v1H88zM89 131h7v1H89zM89 132h7v1H89zM89 133h7v1H89zM89 134h7v1H89zM89 135h7v1H89zM89 136h7v1H89zM89 137h7v1H89zM89 138h7v1H89zM89 139h7v1H89zM90 140h6v1H90zM90 141h6v1H90zM90 142h6v1H90zM90 143h6v1H90zM90 144h6v1H90zM90 145h6v1H90zM90 146h6v1H90zM90 147h6v1H90zM90 148h6v1H90zM90 149h6v1H90zM90 150h6v1H90zM90 151h6v1H90zM90 152h6v1H90zM90 153h6v1H90zM90 154h6v1H90zM90 155h6v1H90zM90 156h6v1H90zM90 157h6v1H90zM90 158h6v1H90zM90 159h6v1H90zM90 160h6v1H90zM90 161h6v1H90zM90 162h6v1H90zM89 163h7v1H89zM89 164h7v1H89zM89 165h7v1H89zM89 166h7v1H89zM89 167h7v1H89zM89 168h7v1H89zM89 169h7v1H89zM89 170h7v1H89zM89 171h7v1H89zM89 172h7v1H89zM89 173h7v1H89zM88 174h8v1H88zM88 175h8v1H88zM88 176h8v1H88zM88 177h8v1H88zM88 178h8v1H88zM88 179h8v1H88zM88 180h8v1H88zM88 181h8v1H88zM87 182h9v1H87zM87 183h9v1H87zM87 184h9v1H87zM87 185h9v1H87zM87 186h9v1H87zM87 187h9v1H87zM86 188h10v1H86zM86 189h10v1H86zM86 190h10v1H86zM86 191h10v1H86zM86 192h10v1H86zM86 193h10v1H86zM85 194h11v1H85zM85 195h11v1H85zM85 196h11v1H85zM85 197h11v1H85zM85 198h11v1H85zM85 199h11v1H85zM85 200h11v1H85zM85 201h11v1H85zM85 202h11v1H85zM85 203h11v1H85zM85 204h11v1H85zM85 205h11v1H85zM85 206h11v1H85zM85 207h11v1H85zM85 208h11v1H85zM85 209h11v1H85zM85 210h11v1H85zM85 211h11v1H85zM85 212h11v1H85zM85 213h11v1H85zM85 214h11v1H85z"/><path id="region-front-left-upper-arm" data-region-code="13" d="M156 83h1v1H156zM156 84h3v1H156zM156 85h5v1H156zM156 86h7v1H156zM156 87h8v1H156zM156 88h9v1H156zM156 89h11v1H156zM156 90h12v1H156zM156 91h13v1H156zM156 92h13v1H156zM156 93h14v1H156zM156 94h15v1H156zM156 95h16v1H156zM156 96h16v1H156zM156 97h17v1H156zM156 98h17v1H156zM156 99h18v1H156zM156 100h18v1H156zM156 101h19v1H156zM156 102h19v1H156zM156 103h20v1H156zM156 104h20v1H156zM156 105h20v1H156zM156 106h20v1H156zM156 107h20v1H156zM156 108h20v1H156zM156 109h20v1H156zM156 110h20v1H156zM156 111h20v1H156zM157 112h19v1H157zM158 113h18v1H158zM159 114h17v1H159zM160 115h16v1H160zM161 116h15v1H161zM162 117h14v1H162zM163 118h13v1H163zM164 119h12v1H164zM165 120h11v1H165zM166 121h10v1H166zM167 122h9v1H167zM167 123h9v1H167zM168 124h8v1H168zM169 125h7v1H169zM170 126h6v1H170zM171 127h5v1H171zM172 128h4v1H172zM173 129h3v1H173zM174 130h2v1H174zM175 131h1v1H175zM156 204h1v1H156zM156 205h1v1H156zM156 206h1v1H156zM156 207h1v1H156zM156 208h1v1H156zM156 209h2v1H156zM156 210h2v1H156zM156 211h2v1H156zM156 212h2v1H156zM156 213h2v1H156zM156 214h2v1H156z"/><path id="region-front-right-upper-arm" data-region-code="14" d="M83 83h2v1H83zM81 84h4v1H81zM79 85h6v1H79zM77 86h8v1H77zM76 87h9v1H76zM75 88h10v1H75zM73 89h12v1H73zM72 90h13v1H72zM71 91h14v1H71zM71 92h14v1H71zM70 93h15v1H70zM69 94h16v1H69zM68 95h17v1H68zM68 96h17v1H68zM67 97h18v1H67zM67 98h18v1H67zM66 99h19v1H66zM66 100h19v1H66zM65 101h20v1H65zM65 102h20v1H65zM65 103h20v1H65zM65 104h20v1H65zM65 105h20v1H65zM65 106h20v1H65zM65 107h20v1H65zM65 108h20v1H65zM65 109h20v1H65zM65 110h20v1H65zM65 111h20v1H65zM65 112h18v1H65zM65 113h17v1H65zM65 114h16v1H65zM65 115h15v1H65zM65 116h14v1H65zM65 117h13v1H65zM65 118h12v1H65zM65 119h11v1H65zM65 120h10v1H65zM65 121h9v1H65zM65 122h8v1H65zM65 123h8v1H65zM65 124h7v1H65zM65 125h6v1H65zM65 126h5v1H65zM65 127h4v1H65zM65 128h3v1H65zM65 129h2v1H65zM65 130h1v1H65zM84 200h1v1H84zM84 201h1v1H84zM84 202h1v1H84zM84 203h1v1H84zM83 204h2v1H83zM83 205h2v1H83zM83 206h2v1H83zM83 207h2v1H83zM83 208h2v1H83zM82 209h3v1H82zM82 210h3v1H82zM82 211h3v1H82zM82 212h3v1H82zM82 213h3v1H82zM82 214h3v1H82z"/><path id="region-front-left-elbow" data-region-code="15" d="M176 105h1v1H176zM176 106h2v1H176zM176 107h2v1H176zM176 108h3v1H176zM176 109h4v1H176zM176 110h4v1H176zM176 111h5v1H176zM176 112h6v1H176zM176 113h7v1H176zM176 114h7v1H176zM176 115h8v1H176zM176 116h8v1H176zM176 117h8v1H176zM176 118h8v1H176zM176 119h8v1H176zM176 120h8v1H176zM176 121h8v1H176zM176 122h8v1H176zM176 123h8v1H176zM176 124h8v1H176zM176 125h8v1H176zM176 126h8v1H176zM176 127h8v1H176zM176 128h8v1H176zM176 129h8v1H176zM176 130h8v1H176zM176 131h8v1H176zM176 132h8v1H176zM176 133h8v1H176zM177 134h7v1H177zM178 135h6v1H178zM179 136h5v1H179zM180 137h4v1H180zM181 138h3v1H181zM182 139h2v1H182zM183 140h1v1H183z"/><path id="region-front-right-elbow" data-region-code="16" d="M64 103h1v1H64zM64 104h1v1H64zM63 105h2v1H63zM62 106h3v1H62zM62 107h3v1H62zM61 108h4v1H61zM60 109h5v1H60zM60 110h5v1H60zM59 111h6v1H59zM58 112h7v1H58zM57 113h8v1H57zM57 114h8v1H57zM57 115h8v1H57zM57 116h8v1H57zM57 117h8v1H57zM57 118h8v1H57zM57 119h8v1H57zM57 120h8v1H57zM57 121h8v1H57zM57 122h8v1H57zM57 123h8v1H57zM57 124h8v1H57zM57 125h8v1H57zM57 126h8v1H57zM57 127h8v1H57zM57 128h8v1H57zM57 129h8v1H57zM57 130h8v1H57zM57 131h8v1H57zM57 132h7v1H57zM57 133h7v1H57zM57 134h6v1H57zM57 135h5v1H57zM57 136h4v1H57zM57 137h3v1H57zM57 138h2v1H57zM57 139h1v1H57z"/><path id="region-front-left-forearm" data-region-code="17" d="M184 116h1v1H184zM184 117h2v1H184zM184 118h2v1H184zM184 119h3v1H184zM184 120h4v1H184zM184 121h5v1H184zM184 122h6v1H184zM184 123h7v1H184zM184 124h8v1H184zM184 125h9v1H184zM184 126h9v1H184zM184 127h10v1H184zM184 128h11v1H184zM184 129h12v1H184zM184 130h14v1H184zM184 131h15v1H184zM184 132h16v1H184zM184 133h17v1H184zM184 134h18v1H184zM184 135h19v1H184zM184 136h20v1H184zM184 137h20v1H184zM184 138h21v1H184zM184 139h22v1H184zM184 140h23v1H184zM184 141h24v1H184zM185 142h23v1H185zM186 143h22v1H186zM187 144h21v1H187zM188 145h20v1H188zM189 146h19v1H189zM190 147h18v1H190zM191 148h17v1H191zM193 149h15v1H193zM194 150h14v1H194zM195 151h13v1H195zM197 152h11v1H197zM198 153h10v1H198zM199 154h9v1H199zM201 155h7v1H201zM202 156h6v1H202zM204 157h4v1H204zM205 158h3v1H205zM207 159h1v1H207z"/><path id="region-front-right-forearm" data-region-code="18" d="M56 115h1v1H56zM55 116h2v1H55zM54 117h3v1H54zM54 118h3v1H54zM53 119h4v1H53zM52 120h5v1H52zM51 121h6v1H51zM50 122h7v1H50zM49 123h8v1H49zM48 124h9v1H48zM48 125h9v1H48zM47 126h10v1H47zM46 127h11v1H46zM45 128h12v1H45zM44 129h13v1H44zM42 130h15v1H42zM41 131h16v1H41zM40 132h17v1H40zM39 133h18v1H39zM38 134h19v1H38zM37 135h20v1H37zM36 136h21v1H36zM36 137h21v1H36zM35 138h22v1H35zM34 139h23v1H34zM33 140h24v1H33zM33 141h23v1H33zM33 142h22v1H33zM33 143h21v1H33zM33 144h20v1H33zM33 145h19v1H33zM33 146h18v1H33zM33 147h17v1H33zM33 148h16v1H33zM33 149h14v1H33zM33 150h13v1H33zM33 151h12v1H33zM33 152h10v1H33zM33 153h9v1H33zM33 154h8v1H33zM33 155h6v1H33zM33 156h5v1H33zM33 157h3v1H33zM33 158h2v1H33z"/><path id="region-front-left-wrist" data-region-code="19" d="M208 142h1v1H208zM208 143h2v1H208zM208 144h3v1H208zM208 145h3v1H208zM208 146h4v1H208zM208 147h5v1H208zM208 148h6v1H208zM208 149h7v1H208zM208 150h8v1H208zM208 151h8v1H208zM208 152h8v1H208zM208 153h8v1H208zM208 154h8v1H208zM208 155h8v1H208zM208 156h8v1H208zM208 157h8v1H208zM208 158h8v1H208zM208 159h8v1H208zM208 160h8v1H208zM210 161h6v1H210zM211 162h5v1H211zM211 163h5v1H211zM211 164h5v1H211zM210 165h6v1H210zM210 166h6v1H210zM209 167h7v1H209zM209 168h7v1H209zM208 169h6v1H208zM208 170h6v1H208zM208 171h5v1H208z"/><path id="region-front-right-wrist" data-region-code="20" d="M32 141h1v1H32zM31 142h2v1H31zM30 143h3v1H30zM29 144h4v1H29zM29 145h4v1H29zM28 146h5v1H28zM27 147h6v1H27zM26 148h7v1H26zM25 149h8v1H25zM25 150h8v1H25zM25 151h8v1H25zM25 152h8v1H25zM25 153h8v1H25zM25 154h8v1H25zM25 155h8v1H25zM25 156h8v1H25zM25 157h8v1H25zM25 158h8v1H25zM25 159h8v1H25zM25 160h7v1H25zM25 161h5v1H25zM25 162h4v1H25zM25 163h4v1H25zM25 164h4v1H25zM25 165h5v1H25zM25 166h5v1H25zM25 167h6v1H25zM25 168h6v1H25zM26 169h6v1H26zM26 170h6v1H26zM27 171h5v1H27z"/><path id="region-front-left-palm" data-region-code="21" d="M216 152h1v1H216zM216 153h2v1H216zM216 154h3v1H216zM216 155h3v1H216zM216 156h4v1H216zM216 157h5v1H216zM216 158h5v1H216zM216 159h6v1H216zM216 160h7v1H216zM216 161h8v1H216zM216 162h9v1H216zM216 163h9v1H216zM216 164h10v1H216zM216 165h10v1H216zM216 166h11v1H216zM216 167h11v1H216zM216 168h11v1H216zM216 169h11v1H216zM218 170h9v1H218zM219 171h8v1H219zM220 172h7v1H220zM221 173h6v1H221zM221 174h6v1H221zM221 175h6v1H221zM221 176h6v1H221zM221 177h6v1H221zM222 178h5v1H222zM222 179h5v1H222zM222 180h5v1H222zM226 181h1v1H226zM226 182h1v1H226z"/><path id="region-front-right-palm" data-region-code="22" d="M24 150h1v1H24zM24 151h1v1H24zM23 152h2v1H23zM22 153h3v1H22zM21 154h4v1H21zM21 155h4v1H21zM20 156h5v1H20zM19 157h6v1H19zM19 158h6v1H19zM18 159h7v1H18zM17 160h8v1H17zM16 161h9v1H16zM15 162h10v1H15zM15 163h10v1H15zM14 164h11v1H14zM14 165h11v1H14zM14 166h11v1H14zM14 167h11v1H14zM14 168h11v1H14zM14 169h10v1H14zM14 170h8v1H14zM14 171h7v1H14zM14 172h6v1H14zM14 173h5v1H14zM14 174h5v1H14zM14 175h5v1H14zM14 176h5v1H14zM14 177h5v1H14zM14 178h4v1H14zM14 179h4v1H14zM14 180h4v1H14z"/><path id="region-front-left-fingers" data-region-code="23" d="M227 167h1v1H227zM227 168h1v1H227zM227 169h2v1H227zM227 170h2v1H227zM227 171h3v1H227zM227 172h3v1H227zM227 173h4v1H227zM227 174h4v1H227zM227 175h4v1H227zM227 176h5v1H227zM227 177h5v1H227zM227 178h6v1H227zM227 179h6v1H227zM227 180h6v1H227zM227 181h6v1H227zM227 182h7v1H227zM227 183h7v1H227zM227 184h7v1H227zM227 185h7v1H227zM228 186h6v1H228zM230 187h5v1H230zM231 188h4v1H231z"/><path id="region-front-right-fingers" data-region-code="24" d="M13 166h1v1H13zM12 167h2v1H12zM12 168h2v1H12zM11 169h3v1H11zM11 170h3v1H11zM10 171h4v1H10zM10 172h4v1H10zM9 173h5v1H9zM9 174h5v1H9zM9 175h5v1H9zM8 176h6v1H8zM8 177h6v1H8zM7 178h7v1H7zM7 179h7v1H7zM7 180h7v1H7zM7 181h7v1H7zM6 182h8v1H6zM6 183h7v1H6zM6 184h7v1H6zM6 185h7v1H6zM6 186h6v1H6zM5 187h5v1H5zM5 188h4v1H5z"/><path id="region-front-left-groin" data-region-code="25" d="M127 196h18v1H127zM127 197h18v1H127zM127 198h18v1H127zM127 199h18v1H127zM127 200h18v1H127zM127 201h18v1H127zM127 202h18v1H127zM127 203h18v1H127zM127 204h18v1H127zM127 205h18v1H127zM127 206h18v1H127zM127 207h18v1H127zM127 208h18v1H127zM127 209h18v1H127zM127 210h18v1H127zM127 211h18v1H127zM127 212h18v1H127zM127 213h18v1H127zM127 214h18v1H127zM127 215h32v1H127zM127 216h32v1H127zM127 217h32v1H127zM127 218h32v1H127zM127 219h32v1H127zM127 220h32v1H127zM127 221h33v1H127zM127 222h33v1H127zM127 223h33v1H127zM127 224h33v1H127z"/><path id="region-front-right-groin" data-region-code="26" d="M96 196h18v1H96zM96 197h18v1H96zM96 198h18v1H96zM96 199h18v1H96zM96 200h18v1H96zM96 201h18v1H96zM96 202h18v1H96zM96 203h18v1H96zM96 204h18v1H96zM96 205h18v1H96zM96 206h18v1H96zM96 207h18v1H96zM96 208h18v1H96zM96 209h18v1H96zM96 210h18v1H96zM96 211h18v1H96zM96 212h18v1H96zM96 213h18v1H96zM96 214h18v1H96zM81 215h33v1H81zM81 216h33v1H81zM81 217h33v1H81zM81 218h33v1H81zM81 219h33v1H81zM81 220h33v1H81zM80 221h34v1H80zM80 222h34v1H80zM80 223h34v1H80zM80 224h34v1H80z"/><path id="region-front-left-thigh" data-region-code="27" d="M124 225h36v1H124zM125 226h35v1H125zM125 227h35v1H125zM125 228h35v1H125zM125 229h36v1H125zM126 230h35v1H126zM126 231h35v1H126zM126 232h35v1H126zM126 233h35v1H126zM126 234h35v1H126zM127 235h34v1H127zM127 236h34v1H127zM127 237h34v1H127zM127 238h34v1H127zM128 239h33v1H128zM128 240h33v1H128zM128 241h33v1H128zM128 242h33v1H128zM129 243h32v1H129zM129 244h32v1H129zM129 245h32v1H129zM130 246h31v1H130zM130 247h31v1H130zM130 248h31v1H130zM130 249h31v1H130zM131 250h30v1H131zM131 251h30v1H131zM131 252h30v1H131zM132 253h29v1H132zM132 254h29v1H132zM132 255h29v1H132zM132 256h29v1H132zM133 257h28v1H133zM133 258h28v1H133zM133 259h28v1H133zM134 260h27v1H134zM134 261h27v1H134zM134 262h27v1H134zM134 263h27v1H134zM135 264h26v1H135zM135 265h26v1H135zM135 266h26v1H135zM135 267h26v1H135zM136 268h26v1H136zM136 269h26v1H136zM136 270h26v1H136zM136 271h26v1H136zM137 272h25v1H137zM137 273h25v1H137zM137 274h25v1H137zM138 275h25v1H138zM138 276h25v1H138zM138 277h25v1H138zM139 278h24v1H139zM139 279h25v1H139z"/><path id="region-front-right-thigh" data-region-code="28" d="M80 225h36v1H80zM80 226h35v1H80zM80 227h35v1H80zM80 228h35v1H80zM79 229h36v1H79zM79 230h35v1H79zM79 231h35v1H79zM79 232h35v1H79zM79 233h35v1H79zM79 234h35v1H79zM79 235h34v1H79zM79 236h34v1H79zM79 237h34v1H79zM79 238h34v1H79zM79 239h33v1H79zM79 240h33v1H79zM79 241h33v1H79zM79 242h33v1H79zM79 243h32v1H79zM79 244h32v1H79zM79 245h32v1H79zM79 246h31v1H79zM79 247h31v1H79zM79 248h31v1H79zM79 249h31v1H79zM79 250h30v1H79zM79 251h30v1H79zM79 252h30v1H79zM79 253h29v1H79zM79 254h29v1H79zM79 255h29v1H79zM79 256h29v1H79zM79 257h28v1H79zM79 258h28v1H79zM79 259h28v1H79zM79 260h27v1H79zM79 261h27v1H79zM79 262h27v1H79zM79 263h27v1H79zM79 264h26v1H79zM79 265h26v1H79zM79 266h26v1H79zM79 267h26v1H79zM78 268h26v1H78zM78 269h26v1H78zM78 270h26v1H78zM78 271h26v1H78zM78 272h25v1H78zM78 273h25v1H78zM78 274h25v1H78zM77 275h25v1H77zM77 276h25v1H77zM77 277h25v1H77zM77 278h24v1H77zM76 279h25v1H76z"/><path id="region-front-left-knee" data-region-code="29" d="M139 280h25v1H139zM140 281h24v1H140zM140 282h24v1H140zM140 283h25v1H140zM141 284h24v1H141zM141 285h24v1H141zM141 286h25v1H141zM141 287h25v1H141zM142 288h24v1H142zM142 289h25v1H142zM142 290h25v1H142zM142 291h25v1H142zM142 292h25v1H142zM142 293h26v1H142zM142 294h26v1H142zM142 295h26v1H142zM142 296h26v1H142zM142 297h26v1H142zM142 298h26v1H142zM142 299h27v1H142zM142 300h27v1H142zM143 301h26v1H143zM143 302h26v1H143zM143 303h26v1H143zM143 304h26v1H143z"/><path id="region-front-right-knee" data-region-code="30" d="M76 280h25v1H76zM76 281h24v1H76zM76 282h24v1H76zM75 283h25v1H75zM75 284h24v1H75zM75 285h24v1H75zM74 286h25v1H74zM74 287h25v1H74zM74 288h24v1H74zM73 289h25v1H73zM73 290h25v1H73zM73 291h25v1H73zM73 292h25v1H73zM72 293h26v1H72zM72 294h26v1H72zM72 295h26v1H72zM72 296h26v1H72zM72 297h26v1H72zM72 298h26v1H72zM71 299h27v1H71zM71 300h27v1H71zM71 301h26v1H71zM71 302h26v1H71zM71 303h26v1H71zM71 304h26v1H71z"/><path id="region-front-left-leg" data-region-code="31" d="M143 305h26v1H143zM143 306h26v1H143zM143 307h26v1H143zM143 308h26v1H143zM143 309h26v1H143zM144 310h25v1H144zM144 311h25v1H144zM144 312h25v1H144zM144 313h25v1H144zM144 314h26v1H144zM145 315h25v1H145zM145 316h25v1H145zM145 317h25v1H145zM145 318h25v1H145zM146 319h24v1H146zM146 320h24v1H146zM146 321h24v1H146zM147 322h23v1H147zM147 323h23v1H147zM147 324h23v1H147zM147 325h23v1H147zM148 326h22v1H148zM148 327h22v1H148zM148 328h22v1H148zM149 329h21v1H149zM149 330h21v1H149zM149 331h21v1H149zM150 332h20v1H150zM150 333h20v1H150zM150 334h20v1H150zM151 335h18v1H151zM151 336h18v1H151zM151 337h18v1H151zM151 338h18v1H151zM152 339h17v1H152zM152 340h17v1H152zM152 341h17v1H152zM153 342h16v1H153zM153 343h16v1H153zM153 344h16v1H153zM153 345h16v1H153zM154 346h15v1H154zM154 347h15v1H154zM154 348h15v1H154z"/><path id="region-front-right-leg" data-region-code="32" d="M71 305h26v1H71zM71 306h26v1H71zM71 307h26v1H71zM71 308h26v1H71zM71 309h26v1H71zM71 310h25v1H71zM71 311h25v1H71zM71 312h25v1H71zM71 313h25v1H71zM70 314h26v1H70zM70 315h25v1H70zM70 316h25v1H70zM70 317h25v1H70zM70 318h25v1H70zM70 319h24v1H70zM70 320h24v1H70zM70 321h24v1H70zM70 322h23v1H70zM70 323h23v1H70zM70 324h23v1H70zM70 325h23v1H70zM70 326h22v1H70zM70 327h22v1H70zM70 328h22v1H70zM70 329h21v1H70zM70 330h21v1H70zM70 331h21v1H70zM70 332h20v1H70zM70 333h20v1H70zM70 334h20v1H70zM71 335h18v1H71zM71 336h18v1H71zM71 337h18v1H71zM71 338h18v1H71zM71 339h17v1H71zM71 340h17v1H71zM71 341h17v1H71zM71 342h16v1H71zM71 343h16v1H71zM71 344h16v1H71zM71 345h16v1H71zM71 346h15v1H71zM71 347h15v1H71zM71 348h15v1H71z"/><path id="region-front-left-ankle" data-region-code="33" d="M154 349h15v1H154zM155 350h14v1H155zM155 351h14v1H155zM155 352h14v1H155zM155 353h14v1H155zM155 354h14v1H155zM155 355h14v1H155zM155 356h14v1H155zM156 357h13v1H156zM156 358h13v1H156zM156 359h13v1H156zM156 360h13v1H156zM155 361h15v1H155zM155 362h15v1H155z"/><path id="region-front-right-ankle" data-region-code="34" d="M71 349h15v1H71zM71 350h14v1H71zM71 351h14v1H71zM71 352h14v1H71zM71 353h14v1H71zM71 354h14v1H71zM71 355h14v1H71zM71 356h14v1H71zM71 357h13v1H71zM71 358h13v1H71zM71 359h13v1H71zM71 360h13v1H71zM70 361h15v1H70zM70 362h15v1H70z"/><path id="region-front-left-foot" data-region-code="35" d="M155 363h15v1H155zM155 364h15v1H155zM155 365h15v1H155zM155 366h15v1H155zM155 367h15v1H155zM155 368h15v1H155zM155 369h16v1H155zM155 370h16v1H155zM155 371h16v1H155zM154 372h17v1H154zM154 373h18v1H154zM153 374h19v1H153zM153 375h20v1H153z"/><path id="region-front-right-foot" data-region-code="36" d="M70 363h15v1H70zM70 364h15v1H70zM70 365h15v1H70zM70 366h15v1H70zM70 367h15v1H70zM70 368h15v1H70zM69 369h16v1H69zM69 370h16v1H69zM69 371h16v1H69zM69 372h17v1H69zM68 373h18v1H68zM68 374h19v1H68zM67 375h20v1H67z"/><path id="region-front-left-toes" data-region-code="37" d="M152 376h22v1H152zM152 377h22v1H152zM153 378h21v1H153zM153 379h21v1H153zM154 380h19v1H154zM155 381h16v1H155z"/><path id="region-front-right-toes" data-region-code="38" d="M66 376h22v1H66zM66 377h22v1H66zM66 378h21v1H66zM66 379h21v1H66zM67 380h19v1H67zM69 381h16v1H69z"/></svg>
